%TF.GenerationSoftware,KiCad,Pcbnew,(5.1.8)-1*%
%TF.CreationDate,2021-01-05T22:27:56+01:00*%
%TF.ProjectId,HeadphoneOutV1,48656164-7068-46f6-9e65-4f757456312e,rev?*%
%TF.SameCoordinates,Original*%
%TF.FileFunction,Soldermask,Bot*%
%TF.FilePolarity,Negative*%
%FSLAX46Y46*%
G04 Gerber Fmt 4.6, Leading zero omitted, Abs format (unit mm)*
G04 Created by KiCad (PCBNEW (5.1.8)-1) date 2021-01-05 22:27:56*
%MOMM*%
%LPD*%
G01*
G04 APERTURE LIST*
%ADD10O,1.700000X1.700000*%
%ADD11R,1.700000X1.700000*%
%ADD12O,1.600000X1.600000*%
%ADD13R,1.600000X1.600000*%
%ADD14C,2.997200*%
%ADD15C,1.853200*%
%ADD16O,1.400000X1.400000*%
%ADD17C,1.400000*%
%ADD18C,2.130000*%
%ADD19R,1.930000X1.830000*%
%ADD20O,2.200000X2.200000*%
%ADD21R,2.200000X2.200000*%
%ADD22C,1.600000*%
G04 APERTURE END LIST*
D10*
%TO.C,J1*%
X36068000Y-66548000D03*
X33528000Y-66548000D03*
X36068000Y-64008000D03*
X33528000Y-64008000D03*
X36068000Y-61468000D03*
X33528000Y-61468000D03*
X36068000Y-58928000D03*
X33528000Y-58928000D03*
X36068000Y-56388000D03*
D11*
X33528000Y-56388000D03*
%TD*%
D10*
%TO.C,J4*%
X27305000Y-102235000D03*
D11*
X27305000Y-104775000D03*
%TD*%
D10*
%TO.C,J3*%
X42545000Y-99695000D03*
X42545000Y-102235000D03*
D11*
X42545000Y-104775000D03*
%TD*%
D12*
%TO.C,U1*%
X38735000Y-74930000D03*
X31115000Y-82550000D03*
X38735000Y-77470000D03*
X31115000Y-80010000D03*
X38735000Y-80010000D03*
X31115000Y-77470000D03*
X38735000Y-82550000D03*
D13*
X31115000Y-74930000D03*
%TD*%
D14*
%TO.C,RV1*%
X30425000Y-43815000D03*
X39425000Y-43815000D03*
D15*
X37425000Y-50815000D03*
X34925000Y-50815000D03*
G36*
G01*
X31600000Y-49888400D02*
X33250000Y-49888400D01*
G75*
G02*
X33351600Y-49990000I0J-101600D01*
G01*
X33351600Y-51640000D01*
G75*
G02*
X33250000Y-51741600I-101600J0D01*
G01*
X31600000Y-51741600D01*
G75*
G02*
X31498400Y-51640000I0J101600D01*
G01*
X31498400Y-49990000D01*
G75*
G02*
X31600000Y-49888400I101600J0D01*
G01*
G37*
%TD*%
D16*
%TO.C,R6*%
X29845000Y-90805000D03*
D17*
X29845000Y-85725000D03*
%TD*%
D16*
%TO.C,R5*%
X26670000Y-77470000D03*
D17*
X26670000Y-82550000D03*
%TD*%
D16*
%TO.C,R4*%
X40005000Y-90805000D03*
D17*
X40005000Y-85725000D03*
%TD*%
D16*
%TO.C,R3*%
X43180000Y-77470000D03*
D17*
X43180000Y-82550000D03*
%TD*%
D16*
%TO.C,R2*%
X43180000Y-95250000D03*
D17*
X43180000Y-90170000D03*
%TD*%
D16*
%TO.C,R1*%
X26670000Y-95250000D03*
D17*
X26670000Y-90170000D03*
%TD*%
D18*
%TO.C,J2*%
X34925000Y-93375000D03*
D19*
X34925000Y-104775000D03*
D18*
X34925000Y-101675000D03*
%TD*%
D20*
%TO.C,D2*%
X27305000Y-66040000D03*
D21*
X27305000Y-55880000D03*
%TD*%
D20*
%TO.C,D1*%
X42545000Y-55880000D03*
D21*
X42545000Y-66040000D03*
%TD*%
D22*
%TO.C,C6*%
X37505000Y-70485000D03*
D13*
X40005000Y-70485000D03*
%TD*%
D22*
%TO.C,C3*%
X26670000Y-74850000D03*
X26670000Y-69850000D03*
%TD*%
%TO.C,C2*%
X32345000Y-70485000D03*
D13*
X29845000Y-70485000D03*
%TD*%
D22*
%TO.C,C1*%
X43180000Y-74850000D03*
X43180000Y-69850000D03*
%TD*%
M02*
