%TF.GenerationSoftware,KiCad,Pcbnew,(5.1.8)-1*%
%TF.CreationDate,2021-01-05T22:27:56+01:00*%
%TF.ProjectId,HeadphoneOutV1,48656164-7068-46f6-9e65-4f757456312e,rev?*%
%TF.SameCoordinates,Original*%
%TF.FileFunction,Copper,L2,Bot*%
%TF.FilePolarity,Positive*%
%FSLAX46Y46*%
G04 Gerber Fmt 4.6, Leading zero omitted, Abs format (unit mm)*
G04 Created by KiCad (PCBNEW (5.1.8)-1) date 2021-01-05 22:27:56*
%MOMM*%
%LPD*%
G01*
G04 APERTURE LIST*
%TA.AperFunction,ComponentPad*%
%ADD10O,1.700000X1.700000*%
%TD*%
%TA.AperFunction,ComponentPad*%
%ADD11R,1.700000X1.700000*%
%TD*%
%TA.AperFunction,ComponentPad*%
%ADD12O,1.600000X1.600000*%
%TD*%
%TA.AperFunction,ComponentPad*%
%ADD13R,1.600000X1.600000*%
%TD*%
%TA.AperFunction,ComponentPad*%
%ADD14C,2.794000*%
%TD*%
%TA.AperFunction,ComponentPad*%
%ADD15C,1.650000*%
%TD*%
%TA.AperFunction,ComponentPad*%
%ADD16R,1.650000X1.650000*%
%TD*%
%TA.AperFunction,ComponentPad*%
%ADD17O,1.400000X1.400000*%
%TD*%
%TA.AperFunction,ComponentPad*%
%ADD18C,1.400000*%
%TD*%
%TA.AperFunction,ComponentPad*%
%ADD19C,2.130000*%
%TD*%
%TA.AperFunction,ComponentPad*%
%ADD20R,1.930000X1.830000*%
%TD*%
%TA.AperFunction,ComponentPad*%
%ADD21O,2.200000X2.200000*%
%TD*%
%TA.AperFunction,ComponentPad*%
%ADD22R,2.200000X2.200000*%
%TD*%
%TA.AperFunction,ComponentPad*%
%ADD23C,1.600000*%
%TD*%
%TA.AperFunction,Conductor*%
%ADD24C,1.000000*%
%TD*%
%TA.AperFunction,Conductor*%
%ADD25C,0.254000*%
%TD*%
%TA.AperFunction,Conductor*%
%ADD26C,0.100000*%
%TD*%
G04 APERTURE END LIST*
D10*
%TO.P,J1,10*%
%TO.N,Net-(D2-Pad1)*%
X36068000Y-66548000D03*
%TO.P,J1,9*%
X33528000Y-66548000D03*
%TO.P,J1,8*%
%TO.N,GND*%
X36068000Y-64008000D03*
%TO.P,J1,7*%
X33528000Y-64008000D03*
%TO.P,J1,6*%
X36068000Y-61468000D03*
%TO.P,J1,5*%
X33528000Y-61468000D03*
%TO.P,J1,4*%
X36068000Y-58928000D03*
%TO.P,J1,3*%
X33528000Y-58928000D03*
%TO.P,J1,2*%
%TO.N,Net-(D1-Pad2)*%
X36068000Y-56388000D03*
D11*
%TO.P,J1,1*%
X33528000Y-56388000D03*
%TD*%
D10*
%TO.P,J4,2*%
%TO.N,Net-(J3-Pad3)*%
X27305000Y-102235000D03*
D11*
%TO.P,J4,1*%
%TO.N,GND*%
X27305000Y-104775000D03*
%TD*%
D10*
%TO.P,J3,3*%
%TO.N,Net-(J3-Pad3)*%
X42545000Y-99695000D03*
%TO.P,J3,2*%
%TO.N,Net-(J3-Pad2)*%
X42545000Y-102235000D03*
D11*
%TO.P,J3,1*%
%TO.N,GND*%
X42545000Y-104775000D03*
%TD*%
D12*
%TO.P,U1,8*%
%TO.N,+12V*%
X38735000Y-74930000D03*
%TO.P,U1,4*%
%TO.N,-12V*%
X31115000Y-82550000D03*
%TO.P,U1,7*%
%TO.N,Net-(R2-Pad1)*%
X38735000Y-77470000D03*
%TO.P,U1,3*%
%TO.N,Net-(RV1-Pad2)*%
X31115000Y-80010000D03*
%TO.P,U1,6*%
%TO.N,Net-(R3-Pad1)*%
X38735000Y-80010000D03*
%TO.P,U1,2*%
%TO.N,Net-(R5-Pad1)*%
X31115000Y-77470000D03*
%TO.P,U1,5*%
%TO.N,Net-(RV1-Pad2)*%
X38735000Y-82550000D03*
D13*
%TO.P,U1,1*%
%TO.N,Net-(R1-Pad1)*%
X31115000Y-74930000D03*
%TD*%
D14*
%TO.P,RV1,CHASSIS1*%
%TO.N,N/C*%
X30425000Y-43815000D03*
%TO.P,RV1,CHASSIS2*%
X39425000Y-43815000D03*
D15*
%TO.P,RV1,3*%
%TO.N,GND*%
X37425000Y-50815000D03*
%TO.P,RV1,2*%
%TO.N,Net-(RV1-Pad2)*%
X34925000Y-50815000D03*
D16*
%TO.P,RV1,1*%
%TO.N,Net-(J2-PadT)*%
X32425000Y-50815000D03*
%TD*%
D17*
%TO.P,R6,2*%
%TO.N,Net-(R1-Pad1)*%
X29845000Y-90805000D03*
D18*
%TO.P,R6,1*%
%TO.N,Net-(R5-Pad1)*%
X29845000Y-85725000D03*
%TD*%
D17*
%TO.P,R5,2*%
%TO.N,GND*%
X26670000Y-77470000D03*
D18*
%TO.P,R5,1*%
%TO.N,Net-(R5-Pad1)*%
X26670000Y-82550000D03*
%TD*%
D17*
%TO.P,R4,2*%
%TO.N,GND*%
X40005000Y-90805000D03*
D18*
%TO.P,R4,1*%
%TO.N,Net-(R3-Pad1)*%
X40005000Y-85725000D03*
%TD*%
D17*
%TO.P,R3,2*%
%TO.N,Net-(R2-Pad1)*%
X43180000Y-77470000D03*
D18*
%TO.P,R3,1*%
%TO.N,Net-(R3-Pad1)*%
X43180000Y-82550000D03*
%TD*%
D17*
%TO.P,R2,2*%
%TO.N,Net-(J3-Pad2)*%
X43180000Y-95250000D03*
D18*
%TO.P,R2,1*%
%TO.N,Net-(R2-Pad1)*%
X43180000Y-90170000D03*
%TD*%
D17*
%TO.P,R1,2*%
%TO.N,Net-(J3-Pad3)*%
X26670000Y-95250000D03*
D18*
%TO.P,R1,1*%
%TO.N,Net-(R1-Pad1)*%
X26670000Y-90170000D03*
%TD*%
D19*
%TO.P,J2,T*%
%TO.N,Net-(J2-PadT)*%
X34925000Y-93375000D03*
D20*
%TO.P,J2,S*%
%TO.N,GND*%
X34925000Y-104775000D03*
D19*
%TO.P,J2,TN*%
%TO.N,Net-(J2-PadT)*%
X34925000Y-101675000D03*
%TD*%
D21*
%TO.P,D2,2*%
%TO.N,-12V*%
X27305000Y-66040000D03*
D22*
%TO.P,D2,1*%
%TO.N,Net-(D2-Pad1)*%
X27305000Y-55880000D03*
%TD*%
D21*
%TO.P,D1,2*%
%TO.N,Net-(D1-Pad2)*%
X42545000Y-55880000D03*
D22*
%TO.P,D1,1*%
%TO.N,+12V*%
X42545000Y-66040000D03*
%TD*%
D23*
%TO.P,C6,2*%
%TO.N,GND*%
X37505000Y-70485000D03*
D13*
%TO.P,C6,1*%
%TO.N,+12V*%
X40005000Y-70485000D03*
%TD*%
D23*
%TO.P,C3,2*%
%TO.N,GND*%
X26670000Y-74850000D03*
%TO.P,C3,1*%
%TO.N,-12V*%
X26670000Y-69850000D03*
%TD*%
%TO.P,C2,2*%
%TO.N,GND*%
X32345000Y-70485000D03*
D13*
%TO.P,C2,1*%
%TO.N,-12V*%
X29845000Y-70485000D03*
%TD*%
D23*
%TO.P,C1,2*%
%TO.N,+12V*%
X43180000Y-74850000D03*
%TO.P,C1,1*%
%TO.N,GND*%
X43180000Y-69850000D03*
%TD*%
D24*
%TO.N,-12V*%
X29845000Y-70485000D02*
X33020000Y-73660000D01*
X33020000Y-80645000D02*
X31115000Y-82550000D01*
X33020000Y-73660000D02*
X33020000Y-80645000D01*
%TO.N,Net-(D1-Pad2)*%
X33528000Y-56388000D02*
X36068000Y-56388000D01*
X36068000Y-56388000D02*
X38862000Y-56388000D01*
X39370000Y-55880000D02*
X42545000Y-55880000D01*
X38862000Y-56388000D02*
X39370000Y-55880000D01*
%TO.N,Net-(J2-PadT)*%
X34925000Y-101675000D02*
X34925000Y-93375000D01*
X32370000Y-50815000D02*
X32425000Y-50815000D01*
X29845000Y-53340000D02*
X32370000Y-50815000D01*
X29845000Y-66421000D02*
X29845000Y-53340000D01*
X32004000Y-68580000D02*
X29845000Y-66421000D01*
X33340002Y-68580000D02*
X32004000Y-68580000D01*
X34925000Y-70164998D02*
X33340002Y-68580000D01*
X34925000Y-93375000D02*
X34925000Y-70164998D01*
%TO.N,Net-(J3-Pad2)*%
X42545000Y-102235000D02*
X39805009Y-99495009D01*
X39805009Y-98624991D02*
X43180000Y-95250000D01*
X39805009Y-99495009D02*
X39805009Y-98624991D01*
%TO.N,Net-(J3-Pad3)*%
X26670000Y-101600000D02*
X26670000Y-95250000D01*
X27305000Y-102235000D02*
X26670000Y-101600000D01*
%TO.N,Net-(R1-Pad1)*%
X31245001Y-89404999D02*
X29845000Y-90805000D01*
X31245001Y-84900003D02*
X31245001Y-89404999D01*
X29614999Y-83270001D02*
X31245001Y-84900003D01*
X29614999Y-76430001D02*
X29614999Y-83270001D01*
X31115000Y-74930000D02*
X29614999Y-76430001D01*
%TO.N,Net-(R2-Pad1)*%
X41779999Y-78870001D02*
X43180000Y-77470000D01*
X41779999Y-83222001D02*
X41779999Y-78870001D01*
X43180000Y-84622002D02*
X41779999Y-83222001D01*
X43180000Y-90170000D02*
X43180000Y-84622002D01*
%TD*%
D25*
%TO.N,GND*%
X43790001Y-54671340D02*
X43650998Y-54532337D01*
X43366831Y-54342463D01*
X43051081Y-54211675D01*
X42715883Y-54145000D01*
X42374117Y-54145000D01*
X42038919Y-54211675D01*
X41723169Y-54342463D01*
X41439002Y-54532337D01*
X41226339Y-54745000D01*
X39425741Y-54745000D01*
X39369999Y-54739510D01*
X39314257Y-54745000D01*
X39314248Y-54745000D01*
X39147501Y-54761423D01*
X38933553Y-54826324D01*
X38736377Y-54931716D01*
X38563551Y-55073551D01*
X38528004Y-55116865D01*
X38391869Y-55253000D01*
X37033107Y-55253000D01*
X37014632Y-55234525D01*
X36771411Y-55072010D01*
X36501158Y-54960068D01*
X36214260Y-54903000D01*
X35921740Y-54903000D01*
X35634842Y-54960068D01*
X35364589Y-55072010D01*
X35121368Y-55234525D01*
X35102893Y-55253000D01*
X34945683Y-55253000D01*
X34908537Y-55183506D01*
X34829185Y-55086815D01*
X34732494Y-55007463D01*
X34622180Y-54948498D01*
X34502482Y-54912188D01*
X34378000Y-54899928D01*
X32678000Y-54899928D01*
X32553518Y-54912188D01*
X32433820Y-54948498D01*
X32323506Y-55007463D01*
X32226815Y-55086815D01*
X32147463Y-55183506D01*
X32088498Y-55293820D01*
X32052188Y-55413518D01*
X32039928Y-55538000D01*
X32039928Y-57238000D01*
X32052188Y-57362482D01*
X32088498Y-57482180D01*
X32147463Y-57592494D01*
X32226815Y-57689185D01*
X32323506Y-57768537D01*
X32433820Y-57827502D01*
X32514466Y-57851966D01*
X32430412Y-57927731D01*
X32256359Y-58161080D01*
X32131175Y-58423901D01*
X32086524Y-58571110D01*
X32207845Y-58801000D01*
X33401000Y-58801000D01*
X33401000Y-58781000D01*
X33655000Y-58781000D01*
X33655000Y-58801000D01*
X35941000Y-58801000D01*
X35941000Y-58781000D01*
X36195000Y-58781000D01*
X36195000Y-58801000D01*
X37388155Y-58801000D01*
X37509476Y-58571110D01*
X37464825Y-58423901D01*
X37339641Y-58161080D01*
X37165588Y-57927731D01*
X36949355Y-57732822D01*
X36832466Y-57663195D01*
X37014632Y-57541475D01*
X37033107Y-57523000D01*
X38806249Y-57523000D01*
X38862000Y-57528491D01*
X38917751Y-57523000D01*
X38917752Y-57523000D01*
X39084499Y-57506577D01*
X39298447Y-57441676D01*
X39495623Y-57336284D01*
X39668449Y-57194449D01*
X39703996Y-57151135D01*
X39840131Y-57015000D01*
X41226339Y-57015000D01*
X41439002Y-57227663D01*
X41723169Y-57417537D01*
X42038919Y-57548325D01*
X42374117Y-57615000D01*
X42715883Y-57615000D01*
X43051081Y-57548325D01*
X43366831Y-57417537D01*
X43650998Y-57227663D01*
X43790001Y-57088660D01*
X43790001Y-64320412D01*
X43769482Y-64314188D01*
X43645000Y-64301928D01*
X41445000Y-64301928D01*
X41320518Y-64314188D01*
X41200820Y-64350498D01*
X41090506Y-64409463D01*
X40993815Y-64488815D01*
X40914463Y-64585506D01*
X40855498Y-64695820D01*
X40819188Y-64815518D01*
X40806928Y-64940000D01*
X40806928Y-67140000D01*
X40819188Y-67264482D01*
X40855498Y-67384180D01*
X40914463Y-67494494D01*
X40993815Y-67591185D01*
X41090506Y-67670537D01*
X41200820Y-67729502D01*
X41320518Y-67765812D01*
X41445000Y-67778072D01*
X43645000Y-67778072D01*
X43769482Y-67765812D01*
X43790001Y-67759588D01*
X43790001Y-68551101D01*
X43666004Y-68492429D01*
X43391816Y-68423700D01*
X43109488Y-68409783D01*
X42829870Y-68451213D01*
X42563708Y-68546397D01*
X42438486Y-68613329D01*
X42366903Y-68857298D01*
X43180000Y-69670395D01*
X43194143Y-69656253D01*
X43373748Y-69835858D01*
X43359605Y-69850000D01*
X43373748Y-69864143D01*
X43194143Y-70043748D01*
X43180000Y-70029605D01*
X42366903Y-70842702D01*
X42438486Y-71086671D01*
X42693996Y-71207571D01*
X42968184Y-71276300D01*
X43250512Y-71290217D01*
X43530130Y-71248787D01*
X43790001Y-71155853D01*
X43790000Y-73549438D01*
X43598574Y-73470147D01*
X43321335Y-73415000D01*
X43038665Y-73415000D01*
X42761426Y-73470147D01*
X42500273Y-73578320D01*
X42265241Y-73735363D01*
X42065363Y-73935241D01*
X41908320Y-74170273D01*
X41800147Y-74431426D01*
X41745000Y-74708665D01*
X41745000Y-74991335D01*
X41800147Y-75268574D01*
X41908320Y-75529727D01*
X42065363Y-75764759D01*
X42265241Y-75964637D01*
X42500273Y-76121680D01*
X42723442Y-76214120D01*
X42547641Y-76286939D01*
X42328987Y-76433038D01*
X42143038Y-76618987D01*
X41996939Y-76837641D01*
X41896304Y-77080595D01*
X41879427Y-77165442D01*
X41016859Y-78028010D01*
X40973551Y-78063552D01*
X40831716Y-78236378D01*
X40812323Y-78272660D01*
X40726323Y-78433555D01*
X40661422Y-78647503D01*
X40639508Y-78870001D01*
X40645000Y-78925762D01*
X40644999Y-83166249D01*
X40639508Y-83222001D01*
X40644999Y-83277752D01*
X40661422Y-83444499D01*
X40726323Y-83658447D01*
X40831715Y-83855624D01*
X40973550Y-84028450D01*
X41016864Y-84063997D01*
X42045001Y-85092135D01*
X42045000Y-89465712D01*
X41996939Y-89537641D01*
X41896304Y-89780595D01*
X41845000Y-90038514D01*
X41845000Y-90301486D01*
X41896304Y-90559405D01*
X41996939Y-90802359D01*
X42143038Y-91021013D01*
X42328987Y-91206962D01*
X42547641Y-91353061D01*
X42790595Y-91453696D01*
X43048514Y-91505000D01*
X43311486Y-91505000D01*
X43569405Y-91453696D01*
X43790000Y-91362322D01*
X43790000Y-94057678D01*
X43569405Y-93966304D01*
X43311486Y-93915000D01*
X43048514Y-93915000D01*
X42790595Y-93966304D01*
X42547641Y-94066939D01*
X42328987Y-94213038D01*
X42143038Y-94398987D01*
X41996939Y-94617641D01*
X41896304Y-94860595D01*
X41879427Y-94945441D01*
X39041869Y-97783000D01*
X38998561Y-97818542D01*
X38856726Y-97991368D01*
X38751333Y-98188544D01*
X38686432Y-98402492D01*
X38686432Y-98402493D01*
X38664518Y-98624991D01*
X38670009Y-98680742D01*
X38670009Y-99439258D01*
X38664518Y-99495009D01*
X38670009Y-99550760D01*
X38686432Y-99717507D01*
X38751333Y-99931455D01*
X38856725Y-100128632D01*
X38998560Y-100301458D01*
X39041874Y-100337005D01*
X41060000Y-102355132D01*
X41060000Y-102381260D01*
X41117068Y-102668158D01*
X41229010Y-102938411D01*
X41391525Y-103181632D01*
X41523380Y-103313487D01*
X41450820Y-103335498D01*
X41340506Y-103394463D01*
X41243815Y-103473815D01*
X41164463Y-103570506D01*
X41105498Y-103680820D01*
X41069188Y-103800518D01*
X41056928Y-103925000D01*
X41060000Y-104489250D01*
X41218750Y-104648000D01*
X42418000Y-104648000D01*
X42418000Y-104628000D01*
X42672000Y-104628000D01*
X42672000Y-104648000D01*
X42692000Y-104648000D01*
X42692000Y-104902000D01*
X42672000Y-104902000D01*
X42672000Y-104922000D01*
X42418000Y-104922000D01*
X42418000Y-104902000D01*
X41218750Y-104902000D01*
X41060000Y-105060750D01*
X41056928Y-105625000D01*
X41069188Y-105749482D01*
X41105498Y-105869180D01*
X41164463Y-105979494D01*
X41197705Y-106020000D01*
X36433630Y-106020000D01*
X36479502Y-105934180D01*
X36515812Y-105814482D01*
X36528072Y-105690000D01*
X36525000Y-105060750D01*
X36366250Y-104902000D01*
X35052000Y-104902000D01*
X35052000Y-104922000D01*
X34798000Y-104922000D01*
X34798000Y-104902000D01*
X33483750Y-104902000D01*
X33325000Y-105060750D01*
X33321928Y-105690000D01*
X33334188Y-105814482D01*
X33370498Y-105934180D01*
X33416370Y-106020000D01*
X28652295Y-106020000D01*
X28685537Y-105979494D01*
X28744502Y-105869180D01*
X28780812Y-105749482D01*
X28793072Y-105625000D01*
X28790000Y-105060750D01*
X28631250Y-104902000D01*
X27432000Y-104902000D01*
X27432000Y-104922000D01*
X27178000Y-104922000D01*
X27178000Y-104902000D01*
X27158000Y-104902000D01*
X27158000Y-104648000D01*
X27178000Y-104648000D01*
X27178000Y-104628000D01*
X27432000Y-104628000D01*
X27432000Y-104648000D01*
X28631250Y-104648000D01*
X28790000Y-104489250D01*
X28793072Y-103925000D01*
X28780812Y-103800518D01*
X28744502Y-103680820D01*
X28685537Y-103570506D01*
X28606185Y-103473815D01*
X28509494Y-103394463D01*
X28399180Y-103335498D01*
X28326620Y-103313487D01*
X28458475Y-103181632D01*
X28620990Y-102938411D01*
X28732932Y-102668158D01*
X28790000Y-102381260D01*
X28790000Y-102088740D01*
X28732932Y-101801842D01*
X28620990Y-101531589D01*
X28458475Y-101288368D01*
X28251632Y-101081525D01*
X28008411Y-100919010D01*
X27805000Y-100834755D01*
X27805000Y-95954288D01*
X27853061Y-95882359D01*
X27953696Y-95639405D01*
X28005000Y-95381486D01*
X28005000Y-95118514D01*
X27953696Y-94860595D01*
X27853061Y-94617641D01*
X27706962Y-94398987D01*
X27521013Y-94213038D01*
X27302359Y-94066939D01*
X27059405Y-93966304D01*
X26801486Y-93915000D01*
X26538514Y-93915000D01*
X26280595Y-93966304D01*
X26060000Y-94057678D01*
X26060000Y-91362322D01*
X26280595Y-91453696D01*
X26538514Y-91505000D01*
X26801486Y-91505000D01*
X27059405Y-91453696D01*
X27302359Y-91353061D01*
X27521013Y-91206962D01*
X27706962Y-91021013D01*
X27853061Y-90802359D01*
X27953696Y-90559405D01*
X28005000Y-90301486D01*
X28005000Y-90038514D01*
X27953696Y-89780595D01*
X27853061Y-89537641D01*
X27706962Y-89318987D01*
X27521013Y-89133038D01*
X27302359Y-88986939D01*
X27059405Y-88886304D01*
X26801486Y-88835000D01*
X26538514Y-88835000D01*
X26280595Y-88886304D01*
X26060000Y-88977678D01*
X26060000Y-83742322D01*
X26280595Y-83833696D01*
X26538514Y-83885000D01*
X26801486Y-83885000D01*
X27059405Y-83833696D01*
X27302359Y-83733061D01*
X27521013Y-83586962D01*
X27706962Y-83401013D01*
X27853061Y-83182359D01*
X27953696Y-82939405D01*
X28005000Y-82681486D01*
X28005000Y-82418514D01*
X27953696Y-82160595D01*
X27853061Y-81917641D01*
X27706962Y-81698987D01*
X27521013Y-81513038D01*
X27302359Y-81366939D01*
X27059405Y-81266304D01*
X26801486Y-81215000D01*
X26538514Y-81215000D01*
X26280595Y-81266304D01*
X26060000Y-81357678D01*
X26060000Y-78651562D01*
X26228956Y-78730047D01*
X26336671Y-78762716D01*
X26543000Y-78639374D01*
X26543000Y-77597000D01*
X26797000Y-77597000D01*
X26797000Y-78639374D01*
X27003329Y-78762716D01*
X27111044Y-78730047D01*
X27348392Y-78619792D01*
X27559670Y-78465351D01*
X27736759Y-78272660D01*
X27872853Y-78049123D01*
X27962722Y-77803330D01*
X27840201Y-77597000D01*
X26797000Y-77597000D01*
X26543000Y-77597000D01*
X26523000Y-77597000D01*
X26523000Y-77343000D01*
X26543000Y-77343000D01*
X26543000Y-77323000D01*
X26797000Y-77323000D01*
X26797000Y-77343000D01*
X27840201Y-77343000D01*
X27962722Y-77136670D01*
X27872853Y-76890877D01*
X27736759Y-76667340D01*
X27559670Y-76474649D01*
X27348392Y-76320208D01*
X27118733Y-76213525D01*
X27286292Y-76153603D01*
X27411514Y-76086671D01*
X27483097Y-75842702D01*
X26670000Y-75029605D01*
X26655858Y-75043748D01*
X26476253Y-74864143D01*
X26490395Y-74850000D01*
X26849605Y-74850000D01*
X27662702Y-75663097D01*
X27906671Y-75591514D01*
X28027571Y-75336004D01*
X28096300Y-75061816D01*
X28110217Y-74779488D01*
X28068787Y-74499870D01*
X27973603Y-74233708D01*
X27906671Y-74108486D01*
X27662702Y-74036903D01*
X26849605Y-74850000D01*
X26490395Y-74850000D01*
X26476253Y-74835858D01*
X26655858Y-74656253D01*
X26670000Y-74670395D01*
X27483097Y-73857298D01*
X27411514Y-73613329D01*
X27156004Y-73492429D01*
X26881816Y-73423700D01*
X26599488Y-73409783D01*
X26319870Y-73451213D01*
X26060000Y-73544147D01*
X26060000Y-71150562D01*
X26251426Y-71229853D01*
X26528665Y-71285000D01*
X26811335Y-71285000D01*
X27088574Y-71229853D01*
X27349727Y-71121680D01*
X27584759Y-70964637D01*
X27784637Y-70764759D01*
X27941680Y-70529727D01*
X28049853Y-70268574D01*
X28105000Y-69991335D01*
X28105000Y-69708665D01*
X28049853Y-69431426D01*
X27941680Y-69170273D01*
X27784637Y-68935241D01*
X27584759Y-68735363D01*
X27349727Y-68578320D01*
X27088574Y-68470147D01*
X26811335Y-68415000D01*
X26528665Y-68415000D01*
X26251426Y-68470147D01*
X26060000Y-68549438D01*
X26060000Y-67248661D01*
X26199002Y-67387663D01*
X26483169Y-67577537D01*
X26798919Y-67708325D01*
X27134117Y-67775000D01*
X27475883Y-67775000D01*
X27811081Y-67708325D01*
X28126831Y-67577537D01*
X28410998Y-67387663D01*
X28652663Y-67145998D01*
X28815387Y-66902465D01*
X28896716Y-67054623D01*
X29038551Y-67227449D01*
X29081865Y-67262996D01*
X30943288Y-69124420D01*
X30889180Y-69095498D01*
X30769482Y-69059188D01*
X30645000Y-69046928D01*
X29045000Y-69046928D01*
X28920518Y-69059188D01*
X28800820Y-69095498D01*
X28690506Y-69154463D01*
X28593815Y-69233815D01*
X28514463Y-69330506D01*
X28455498Y-69440820D01*
X28419188Y-69560518D01*
X28406928Y-69685000D01*
X28406928Y-71285000D01*
X28419188Y-71409482D01*
X28455498Y-71529180D01*
X28514463Y-71639494D01*
X28593815Y-71736185D01*
X28690506Y-71815537D01*
X28800820Y-71874502D01*
X28920518Y-71910812D01*
X29045000Y-71923072D01*
X29677941Y-71923072D01*
X31246796Y-73491928D01*
X30315000Y-73491928D01*
X30190518Y-73504188D01*
X30070820Y-73540498D01*
X29960506Y-73599463D01*
X29863815Y-73678815D01*
X29784463Y-73775506D01*
X29725498Y-73885820D01*
X29689188Y-74005518D01*
X29676928Y-74130000D01*
X29676928Y-74762940D01*
X28851864Y-75588005D01*
X28808550Y-75623552D01*
X28666715Y-75796378D01*
X28576780Y-75964637D01*
X28561323Y-75993555D01*
X28496422Y-76207503D01*
X28474508Y-76430001D01*
X28479999Y-76485753D01*
X28480000Y-83214240D01*
X28474508Y-83270001D01*
X28496422Y-83492499D01*
X28561323Y-83706447D01*
X28561324Y-83706448D01*
X28666716Y-83903624D01*
X28808551Y-84076450D01*
X28851859Y-84111992D01*
X29261548Y-84521681D01*
X29212641Y-84541939D01*
X28993987Y-84688038D01*
X28808038Y-84873987D01*
X28661939Y-85092641D01*
X28561304Y-85335595D01*
X28510000Y-85593514D01*
X28510000Y-85856486D01*
X28561304Y-86114405D01*
X28661939Y-86357359D01*
X28808038Y-86576013D01*
X28993987Y-86761962D01*
X29212641Y-86908061D01*
X29455595Y-87008696D01*
X29713514Y-87060000D01*
X29976486Y-87060000D01*
X30110001Y-87033442D01*
X30110002Y-88934866D01*
X29540442Y-89504427D01*
X29455595Y-89521304D01*
X29212641Y-89621939D01*
X28993987Y-89768038D01*
X28808038Y-89953987D01*
X28661939Y-90172641D01*
X28561304Y-90415595D01*
X28510000Y-90673514D01*
X28510000Y-90936486D01*
X28561304Y-91194405D01*
X28661939Y-91437359D01*
X28808038Y-91656013D01*
X28993987Y-91841962D01*
X29212641Y-91988061D01*
X29455595Y-92088696D01*
X29713514Y-92140000D01*
X29976486Y-92140000D01*
X30234405Y-92088696D01*
X30477359Y-91988061D01*
X30696013Y-91841962D01*
X30881962Y-91656013D01*
X31028061Y-91437359D01*
X31128696Y-91194405D01*
X31145573Y-91109558D01*
X32008141Y-90246991D01*
X32051450Y-90211448D01*
X32193285Y-90038622D01*
X32298677Y-89841446D01*
X32363578Y-89627498D01*
X32380001Y-89460751D01*
X32380001Y-89460742D01*
X32385491Y-89405000D01*
X32380001Y-89349258D01*
X32380001Y-84955754D01*
X32385492Y-84900003D01*
X32363578Y-84677504D01*
X32298677Y-84463556D01*
X32264440Y-84399503D01*
X32193285Y-84266380D01*
X32051450Y-84093554D01*
X32008141Y-84058012D01*
X31778522Y-83828392D01*
X31794727Y-83821680D01*
X32029759Y-83664637D01*
X32229637Y-83464759D01*
X32386680Y-83229727D01*
X32494853Y-82968574D01*
X32542850Y-82727282D01*
X33783141Y-81486991D01*
X33790001Y-81481362D01*
X33790000Y-92105836D01*
X33604523Y-92291313D01*
X33418479Y-92569748D01*
X33290330Y-92879128D01*
X33225000Y-93207565D01*
X33225000Y-93542435D01*
X33290330Y-93870872D01*
X33418479Y-94180252D01*
X33604523Y-94458687D01*
X33790001Y-94644165D01*
X33790000Y-100405836D01*
X33604523Y-100591313D01*
X33418479Y-100869748D01*
X33290330Y-101179128D01*
X33225000Y-101507565D01*
X33225000Y-101842435D01*
X33290330Y-102170872D01*
X33418479Y-102480252D01*
X33604523Y-102758687D01*
X33841313Y-102995477D01*
X34119748Y-103181521D01*
X34220140Y-103223105D01*
X33960000Y-103221928D01*
X33835518Y-103234188D01*
X33715820Y-103270498D01*
X33605506Y-103329463D01*
X33508815Y-103408815D01*
X33429463Y-103505506D01*
X33370498Y-103615820D01*
X33334188Y-103735518D01*
X33321928Y-103860000D01*
X33325000Y-104489250D01*
X33483750Y-104648000D01*
X34798000Y-104648000D01*
X34798000Y-104628000D01*
X35052000Y-104628000D01*
X35052000Y-104648000D01*
X36366250Y-104648000D01*
X36525000Y-104489250D01*
X36528072Y-103860000D01*
X36515812Y-103735518D01*
X36479502Y-103615820D01*
X36420537Y-103505506D01*
X36341185Y-103408815D01*
X36244494Y-103329463D01*
X36134180Y-103270498D01*
X36014482Y-103234188D01*
X35890000Y-103221928D01*
X35629860Y-103223105D01*
X35730252Y-103181521D01*
X36008687Y-102995477D01*
X36245477Y-102758687D01*
X36431521Y-102480252D01*
X36559670Y-102170872D01*
X36625000Y-101842435D01*
X36625000Y-101507565D01*
X36559670Y-101179128D01*
X36431521Y-100869748D01*
X36245477Y-100591313D01*
X36060000Y-100405836D01*
X36060000Y-94644164D01*
X36245477Y-94458687D01*
X36431521Y-94180252D01*
X36559670Y-93870872D01*
X36625000Y-93542435D01*
X36625000Y-93207565D01*
X36559670Y-92879128D01*
X36431521Y-92569748D01*
X36245477Y-92291313D01*
X36060000Y-92105836D01*
X36060000Y-91138330D01*
X38712278Y-91138330D01*
X38802147Y-91384123D01*
X38938241Y-91607660D01*
X39115330Y-91800351D01*
X39326608Y-91954792D01*
X39563956Y-92065047D01*
X39671671Y-92097716D01*
X39878000Y-91974374D01*
X39878000Y-90932000D01*
X40132000Y-90932000D01*
X40132000Y-91974374D01*
X40338329Y-92097716D01*
X40446044Y-92065047D01*
X40683392Y-91954792D01*
X40894670Y-91800351D01*
X41071759Y-91607660D01*
X41207853Y-91384123D01*
X41297722Y-91138330D01*
X41175201Y-90932000D01*
X40132000Y-90932000D01*
X39878000Y-90932000D01*
X38834799Y-90932000D01*
X38712278Y-91138330D01*
X36060000Y-91138330D01*
X36060000Y-90471670D01*
X38712278Y-90471670D01*
X38834799Y-90678000D01*
X39878000Y-90678000D01*
X39878000Y-89635626D01*
X40132000Y-89635626D01*
X40132000Y-90678000D01*
X41175201Y-90678000D01*
X41297722Y-90471670D01*
X41207853Y-90225877D01*
X41071759Y-90002340D01*
X40894670Y-89809649D01*
X40683392Y-89655208D01*
X40446044Y-89544953D01*
X40338329Y-89512284D01*
X40132000Y-89635626D01*
X39878000Y-89635626D01*
X39671671Y-89512284D01*
X39563956Y-89544953D01*
X39326608Y-89655208D01*
X39115330Y-89809649D01*
X38938241Y-90002340D01*
X38802147Y-90225877D01*
X38712278Y-90471670D01*
X36060000Y-90471670D01*
X36060000Y-85593514D01*
X38670000Y-85593514D01*
X38670000Y-85856486D01*
X38721304Y-86114405D01*
X38821939Y-86357359D01*
X38968038Y-86576013D01*
X39153987Y-86761962D01*
X39372641Y-86908061D01*
X39615595Y-87008696D01*
X39873514Y-87060000D01*
X40136486Y-87060000D01*
X40394405Y-87008696D01*
X40637359Y-86908061D01*
X40856013Y-86761962D01*
X41041962Y-86576013D01*
X41188061Y-86357359D01*
X41288696Y-86114405D01*
X41340000Y-85856486D01*
X41340000Y-85593514D01*
X41288696Y-85335595D01*
X41188061Y-85092641D01*
X41041962Y-84873987D01*
X40856013Y-84688038D01*
X40637359Y-84541939D01*
X40394405Y-84441304D01*
X40136486Y-84390000D01*
X39873514Y-84390000D01*
X39615595Y-84441304D01*
X39372641Y-84541939D01*
X39153987Y-84688038D01*
X38968038Y-84873987D01*
X38821939Y-85092641D01*
X38721304Y-85335595D01*
X38670000Y-85593514D01*
X36060000Y-85593514D01*
X36060000Y-74788665D01*
X37300000Y-74788665D01*
X37300000Y-75071335D01*
X37355147Y-75348574D01*
X37463320Y-75609727D01*
X37620363Y-75844759D01*
X37820241Y-76044637D01*
X38052759Y-76200000D01*
X37820241Y-76355363D01*
X37620363Y-76555241D01*
X37463320Y-76790273D01*
X37355147Y-77051426D01*
X37300000Y-77328665D01*
X37300000Y-77611335D01*
X37355147Y-77888574D01*
X37463320Y-78149727D01*
X37620363Y-78384759D01*
X37820241Y-78584637D01*
X38052759Y-78740000D01*
X37820241Y-78895363D01*
X37620363Y-79095241D01*
X37463320Y-79330273D01*
X37355147Y-79591426D01*
X37300000Y-79868665D01*
X37300000Y-80151335D01*
X37355147Y-80428574D01*
X37463320Y-80689727D01*
X37620363Y-80924759D01*
X37820241Y-81124637D01*
X38052759Y-81280000D01*
X37820241Y-81435363D01*
X37620363Y-81635241D01*
X37463320Y-81870273D01*
X37355147Y-82131426D01*
X37300000Y-82408665D01*
X37300000Y-82691335D01*
X37355147Y-82968574D01*
X37463320Y-83229727D01*
X37620363Y-83464759D01*
X37820241Y-83664637D01*
X38055273Y-83821680D01*
X38316426Y-83929853D01*
X38593665Y-83985000D01*
X38876335Y-83985000D01*
X39153574Y-83929853D01*
X39414727Y-83821680D01*
X39649759Y-83664637D01*
X39849637Y-83464759D01*
X40006680Y-83229727D01*
X40114853Y-82968574D01*
X40170000Y-82691335D01*
X40170000Y-82408665D01*
X40114853Y-82131426D01*
X40006680Y-81870273D01*
X39849637Y-81635241D01*
X39649759Y-81435363D01*
X39417241Y-81280000D01*
X39649759Y-81124637D01*
X39849637Y-80924759D01*
X40006680Y-80689727D01*
X40114853Y-80428574D01*
X40170000Y-80151335D01*
X40170000Y-79868665D01*
X40114853Y-79591426D01*
X40006680Y-79330273D01*
X39849637Y-79095241D01*
X39649759Y-78895363D01*
X39417241Y-78740000D01*
X39649759Y-78584637D01*
X39849637Y-78384759D01*
X40006680Y-78149727D01*
X40114853Y-77888574D01*
X40170000Y-77611335D01*
X40170000Y-77328665D01*
X40114853Y-77051426D01*
X40006680Y-76790273D01*
X39849637Y-76555241D01*
X39649759Y-76355363D01*
X39417241Y-76200000D01*
X39649759Y-76044637D01*
X39849637Y-75844759D01*
X40006680Y-75609727D01*
X40114853Y-75348574D01*
X40170000Y-75071335D01*
X40170000Y-74788665D01*
X40114853Y-74511426D01*
X40006680Y-74250273D01*
X39849637Y-74015241D01*
X39649759Y-73815363D01*
X39414727Y-73658320D01*
X39153574Y-73550147D01*
X38876335Y-73495000D01*
X38593665Y-73495000D01*
X38316426Y-73550147D01*
X38055273Y-73658320D01*
X37820241Y-73815363D01*
X37620363Y-74015241D01*
X37463320Y-74250273D01*
X37355147Y-74511426D01*
X37300000Y-74788665D01*
X36060000Y-74788665D01*
X36060000Y-71477702D01*
X36691903Y-71477702D01*
X36763486Y-71721671D01*
X37018996Y-71842571D01*
X37293184Y-71911300D01*
X37575512Y-71925217D01*
X37855130Y-71883787D01*
X38121292Y-71788603D01*
X38246514Y-71721671D01*
X38318097Y-71477702D01*
X37505000Y-70664605D01*
X36691903Y-71477702D01*
X36060000Y-71477702D01*
X36060000Y-70555512D01*
X36064783Y-70555512D01*
X36106213Y-70835130D01*
X36201397Y-71101292D01*
X36268329Y-71226514D01*
X36512298Y-71298097D01*
X37325395Y-70485000D01*
X37684605Y-70485000D01*
X38497702Y-71298097D01*
X38566928Y-71277785D01*
X38566928Y-71285000D01*
X38579188Y-71409482D01*
X38615498Y-71529180D01*
X38674463Y-71639494D01*
X38753815Y-71736185D01*
X38850506Y-71815537D01*
X38960820Y-71874502D01*
X39080518Y-71910812D01*
X39205000Y-71923072D01*
X40805000Y-71923072D01*
X40929482Y-71910812D01*
X41049180Y-71874502D01*
X41159494Y-71815537D01*
X41256185Y-71736185D01*
X41335537Y-71639494D01*
X41394502Y-71529180D01*
X41430812Y-71409482D01*
X41443072Y-71285000D01*
X41443072Y-69920512D01*
X41739783Y-69920512D01*
X41781213Y-70200130D01*
X41876397Y-70466292D01*
X41943329Y-70591514D01*
X42187298Y-70663097D01*
X43000395Y-69850000D01*
X42187298Y-69036903D01*
X41943329Y-69108486D01*
X41822429Y-69363996D01*
X41753700Y-69638184D01*
X41739783Y-69920512D01*
X41443072Y-69920512D01*
X41443072Y-69685000D01*
X41430812Y-69560518D01*
X41394502Y-69440820D01*
X41335537Y-69330506D01*
X41256185Y-69233815D01*
X41159494Y-69154463D01*
X41049180Y-69095498D01*
X40929482Y-69059188D01*
X40805000Y-69046928D01*
X39205000Y-69046928D01*
X39080518Y-69059188D01*
X38960820Y-69095498D01*
X38850506Y-69154463D01*
X38753815Y-69233815D01*
X38674463Y-69330506D01*
X38615498Y-69440820D01*
X38579188Y-69560518D01*
X38566928Y-69685000D01*
X38566928Y-69692215D01*
X38497702Y-69671903D01*
X37684605Y-70485000D01*
X37325395Y-70485000D01*
X36512298Y-69671903D01*
X36268329Y-69743486D01*
X36147429Y-69998996D01*
X36078700Y-70273184D01*
X36064783Y-70555512D01*
X36060000Y-70555512D01*
X36060000Y-70220750D01*
X36065491Y-70164998D01*
X36043577Y-69942499D01*
X35978676Y-69728551D01*
X35873284Y-69531375D01*
X35841215Y-69492298D01*
X36691903Y-69492298D01*
X37505000Y-70305395D01*
X38318097Y-69492298D01*
X38246514Y-69248329D01*
X37991004Y-69127429D01*
X37716816Y-69058700D01*
X37434488Y-69044783D01*
X37154870Y-69086213D01*
X36888708Y-69181397D01*
X36763486Y-69248329D01*
X36691903Y-69492298D01*
X35841215Y-69492298D01*
X35766989Y-69401854D01*
X35766987Y-69401852D01*
X35731449Y-69358549D01*
X35688146Y-69323011D01*
X34229793Y-67864660D01*
X34231411Y-67863990D01*
X34474632Y-67701475D01*
X34681475Y-67494632D01*
X34798000Y-67320240D01*
X34914525Y-67494632D01*
X35121368Y-67701475D01*
X35364589Y-67863990D01*
X35634842Y-67975932D01*
X35921740Y-68033000D01*
X36214260Y-68033000D01*
X36501158Y-67975932D01*
X36771411Y-67863990D01*
X37014632Y-67701475D01*
X37221475Y-67494632D01*
X37383990Y-67251411D01*
X37495932Y-66981158D01*
X37553000Y-66694260D01*
X37553000Y-66401740D01*
X37495932Y-66114842D01*
X37383990Y-65844589D01*
X37221475Y-65601368D01*
X37014632Y-65394525D01*
X36832466Y-65272805D01*
X36949355Y-65203178D01*
X37165588Y-65008269D01*
X37339641Y-64774920D01*
X37464825Y-64512099D01*
X37509476Y-64364890D01*
X37388155Y-64135000D01*
X36195000Y-64135000D01*
X36195000Y-64155000D01*
X35941000Y-64155000D01*
X35941000Y-64135000D01*
X33655000Y-64135000D01*
X33655000Y-64155000D01*
X33401000Y-64155000D01*
X33401000Y-64135000D01*
X32207845Y-64135000D01*
X32086524Y-64364890D01*
X32131175Y-64512099D01*
X32256359Y-64774920D01*
X32430412Y-65008269D01*
X32646645Y-65203178D01*
X32763534Y-65272805D01*
X32581368Y-65394525D01*
X32374525Y-65601368D01*
X32212010Y-65844589D01*
X32100068Y-66114842D01*
X32043000Y-66401740D01*
X32043000Y-66694260D01*
X32100068Y-66981158D01*
X32163550Y-67134419D01*
X30980000Y-65950869D01*
X30980000Y-61824890D01*
X32086524Y-61824890D01*
X32131175Y-61972099D01*
X32256359Y-62234920D01*
X32430412Y-62468269D01*
X32646645Y-62663178D01*
X32772255Y-62738000D01*
X32646645Y-62812822D01*
X32430412Y-63007731D01*
X32256359Y-63241080D01*
X32131175Y-63503901D01*
X32086524Y-63651110D01*
X32207845Y-63881000D01*
X33401000Y-63881000D01*
X33401000Y-61595000D01*
X33655000Y-61595000D01*
X33655000Y-63881000D01*
X35941000Y-63881000D01*
X35941000Y-61595000D01*
X36195000Y-61595000D01*
X36195000Y-63881000D01*
X37388155Y-63881000D01*
X37509476Y-63651110D01*
X37464825Y-63503901D01*
X37339641Y-63241080D01*
X37165588Y-63007731D01*
X36949355Y-62812822D01*
X36823745Y-62738000D01*
X36949355Y-62663178D01*
X37165588Y-62468269D01*
X37339641Y-62234920D01*
X37464825Y-61972099D01*
X37509476Y-61824890D01*
X37388155Y-61595000D01*
X36195000Y-61595000D01*
X35941000Y-61595000D01*
X33655000Y-61595000D01*
X33401000Y-61595000D01*
X32207845Y-61595000D01*
X32086524Y-61824890D01*
X30980000Y-61824890D01*
X30980000Y-59284890D01*
X32086524Y-59284890D01*
X32131175Y-59432099D01*
X32256359Y-59694920D01*
X32430412Y-59928269D01*
X32646645Y-60123178D01*
X32772255Y-60198000D01*
X32646645Y-60272822D01*
X32430412Y-60467731D01*
X32256359Y-60701080D01*
X32131175Y-60963901D01*
X32086524Y-61111110D01*
X32207845Y-61341000D01*
X33401000Y-61341000D01*
X33401000Y-59055000D01*
X33655000Y-59055000D01*
X33655000Y-61341000D01*
X35941000Y-61341000D01*
X35941000Y-59055000D01*
X36195000Y-59055000D01*
X36195000Y-61341000D01*
X37388155Y-61341000D01*
X37509476Y-61111110D01*
X37464825Y-60963901D01*
X37339641Y-60701080D01*
X37165588Y-60467731D01*
X36949355Y-60272822D01*
X36823745Y-60198000D01*
X36949355Y-60123178D01*
X37165588Y-59928269D01*
X37339641Y-59694920D01*
X37464825Y-59432099D01*
X37509476Y-59284890D01*
X37388155Y-59055000D01*
X36195000Y-59055000D01*
X35941000Y-59055000D01*
X33655000Y-59055000D01*
X33401000Y-59055000D01*
X32207845Y-59055000D01*
X32086524Y-59284890D01*
X30980000Y-59284890D01*
X30980000Y-53810131D01*
X32512060Y-52278072D01*
X33250000Y-52278072D01*
X33374482Y-52265812D01*
X33494180Y-52229502D01*
X33604494Y-52170537D01*
X33701185Y-52091185D01*
X33780537Y-51994494D01*
X33839502Y-51884180D01*
X33860432Y-51815184D01*
X33994304Y-51949056D01*
X34233431Y-52108835D01*
X34499134Y-52218893D01*
X34781203Y-52275000D01*
X35068797Y-52275000D01*
X35350866Y-52218893D01*
X35616569Y-52108835D01*
X35855696Y-51949056D01*
X35979201Y-51825551D01*
X36594054Y-51825551D01*
X36668663Y-52072073D01*
X36928439Y-52195473D01*
X37207297Y-52265823D01*
X37494521Y-52280417D01*
X37779074Y-52238697D01*
X38050020Y-52142265D01*
X38181337Y-52072073D01*
X38255946Y-51825551D01*
X37425000Y-50994605D01*
X36594054Y-51825551D01*
X35979201Y-51825551D01*
X36059056Y-51745696D01*
X36174275Y-51573258D01*
X36414449Y-51645946D01*
X37245395Y-50815000D01*
X37604605Y-50815000D01*
X38435551Y-51645946D01*
X38682073Y-51571337D01*
X38805473Y-51311561D01*
X38875823Y-51032703D01*
X38890417Y-50745479D01*
X38848697Y-50460926D01*
X38752265Y-50189980D01*
X38682073Y-50058663D01*
X38435551Y-49984054D01*
X37604605Y-50815000D01*
X37245395Y-50815000D01*
X36414449Y-49984054D01*
X36174275Y-50056742D01*
X36059056Y-49884304D01*
X35979201Y-49804449D01*
X36594054Y-49804449D01*
X37425000Y-50635395D01*
X38255946Y-49804449D01*
X38181337Y-49557927D01*
X37921561Y-49434527D01*
X37642703Y-49364177D01*
X37355479Y-49349583D01*
X37070926Y-49391303D01*
X36799980Y-49487735D01*
X36668663Y-49557927D01*
X36594054Y-49804449D01*
X35979201Y-49804449D01*
X35855696Y-49680944D01*
X35616569Y-49521165D01*
X35350866Y-49411107D01*
X35068797Y-49355000D01*
X34781203Y-49355000D01*
X34499134Y-49411107D01*
X34233431Y-49521165D01*
X33994304Y-49680944D01*
X33860432Y-49814816D01*
X33839502Y-49745820D01*
X33780537Y-49635506D01*
X33701185Y-49538815D01*
X33604494Y-49459463D01*
X33494180Y-49400498D01*
X33374482Y-49364188D01*
X33250000Y-49351928D01*
X31600000Y-49351928D01*
X31475518Y-49364188D01*
X31355820Y-49400498D01*
X31245506Y-49459463D01*
X31148815Y-49538815D01*
X31069463Y-49635506D01*
X31010498Y-49745820D01*
X30974188Y-49865518D01*
X30961928Y-49990000D01*
X30961928Y-50617940D01*
X29081860Y-52498009D01*
X29038552Y-52533551D01*
X28896717Y-52706377D01*
X28840384Y-52811770D01*
X28791324Y-52903554D01*
X28726423Y-53117502D01*
X28704509Y-53340000D01*
X28710001Y-53395761D01*
X28710001Y-54223008D01*
X28649180Y-54190498D01*
X28529482Y-54154188D01*
X28405000Y-54141928D01*
X26205000Y-54141928D01*
X26080518Y-54154188D01*
X26060000Y-54160412D01*
X26060000Y-43614865D01*
X28393000Y-43614865D01*
X28393000Y-44015135D01*
X28471089Y-44407713D01*
X28624265Y-44777513D01*
X28846643Y-45110325D01*
X29129675Y-45393357D01*
X29462487Y-45615735D01*
X29832287Y-45768911D01*
X30224865Y-45847000D01*
X30625135Y-45847000D01*
X31017713Y-45768911D01*
X31387513Y-45615735D01*
X31720325Y-45393357D01*
X32003357Y-45110325D01*
X32225735Y-44777513D01*
X32378911Y-44407713D01*
X32457000Y-44015135D01*
X32457000Y-43614865D01*
X37393000Y-43614865D01*
X37393000Y-44015135D01*
X37471089Y-44407713D01*
X37624265Y-44777513D01*
X37846643Y-45110325D01*
X38129675Y-45393357D01*
X38462487Y-45615735D01*
X38832287Y-45768911D01*
X39224865Y-45847000D01*
X39625135Y-45847000D01*
X40017713Y-45768911D01*
X40387513Y-45615735D01*
X40720325Y-45393357D01*
X41003357Y-45110325D01*
X41225735Y-44777513D01*
X41378911Y-44407713D01*
X41457000Y-44015135D01*
X41457000Y-43614865D01*
X41378911Y-43222287D01*
X41225735Y-42852487D01*
X41003357Y-42519675D01*
X40720325Y-42236643D01*
X40387513Y-42014265D01*
X40017713Y-41861089D01*
X39625135Y-41783000D01*
X39224865Y-41783000D01*
X38832287Y-41861089D01*
X38462487Y-42014265D01*
X38129675Y-42236643D01*
X37846643Y-42519675D01*
X37624265Y-42852487D01*
X37471089Y-43222287D01*
X37393000Y-43614865D01*
X32457000Y-43614865D01*
X32378911Y-43222287D01*
X32225735Y-42852487D01*
X32003357Y-42519675D01*
X31720325Y-42236643D01*
X31387513Y-42014265D01*
X31017713Y-41861089D01*
X30625135Y-41783000D01*
X30224865Y-41783000D01*
X29832287Y-41861089D01*
X29462487Y-42014265D01*
X29129675Y-42236643D01*
X28846643Y-42519675D01*
X28624265Y-42852487D01*
X28471089Y-43222287D01*
X28393000Y-43614865D01*
X26060000Y-43614865D01*
X26060000Y-38760000D01*
X43790001Y-38760000D01*
X43790001Y-54671340D01*
%TA.AperFunction,Conductor*%
D26*
G36*
X43790001Y-54671340D02*
G01*
X43650998Y-54532337D01*
X43366831Y-54342463D01*
X43051081Y-54211675D01*
X42715883Y-54145000D01*
X42374117Y-54145000D01*
X42038919Y-54211675D01*
X41723169Y-54342463D01*
X41439002Y-54532337D01*
X41226339Y-54745000D01*
X39425741Y-54745000D01*
X39369999Y-54739510D01*
X39314257Y-54745000D01*
X39314248Y-54745000D01*
X39147501Y-54761423D01*
X38933553Y-54826324D01*
X38736377Y-54931716D01*
X38563551Y-55073551D01*
X38528004Y-55116865D01*
X38391869Y-55253000D01*
X37033107Y-55253000D01*
X37014632Y-55234525D01*
X36771411Y-55072010D01*
X36501158Y-54960068D01*
X36214260Y-54903000D01*
X35921740Y-54903000D01*
X35634842Y-54960068D01*
X35364589Y-55072010D01*
X35121368Y-55234525D01*
X35102893Y-55253000D01*
X34945683Y-55253000D01*
X34908537Y-55183506D01*
X34829185Y-55086815D01*
X34732494Y-55007463D01*
X34622180Y-54948498D01*
X34502482Y-54912188D01*
X34378000Y-54899928D01*
X32678000Y-54899928D01*
X32553518Y-54912188D01*
X32433820Y-54948498D01*
X32323506Y-55007463D01*
X32226815Y-55086815D01*
X32147463Y-55183506D01*
X32088498Y-55293820D01*
X32052188Y-55413518D01*
X32039928Y-55538000D01*
X32039928Y-57238000D01*
X32052188Y-57362482D01*
X32088498Y-57482180D01*
X32147463Y-57592494D01*
X32226815Y-57689185D01*
X32323506Y-57768537D01*
X32433820Y-57827502D01*
X32514466Y-57851966D01*
X32430412Y-57927731D01*
X32256359Y-58161080D01*
X32131175Y-58423901D01*
X32086524Y-58571110D01*
X32207845Y-58801000D01*
X33401000Y-58801000D01*
X33401000Y-58781000D01*
X33655000Y-58781000D01*
X33655000Y-58801000D01*
X35941000Y-58801000D01*
X35941000Y-58781000D01*
X36195000Y-58781000D01*
X36195000Y-58801000D01*
X37388155Y-58801000D01*
X37509476Y-58571110D01*
X37464825Y-58423901D01*
X37339641Y-58161080D01*
X37165588Y-57927731D01*
X36949355Y-57732822D01*
X36832466Y-57663195D01*
X37014632Y-57541475D01*
X37033107Y-57523000D01*
X38806249Y-57523000D01*
X38862000Y-57528491D01*
X38917751Y-57523000D01*
X38917752Y-57523000D01*
X39084499Y-57506577D01*
X39298447Y-57441676D01*
X39495623Y-57336284D01*
X39668449Y-57194449D01*
X39703996Y-57151135D01*
X39840131Y-57015000D01*
X41226339Y-57015000D01*
X41439002Y-57227663D01*
X41723169Y-57417537D01*
X42038919Y-57548325D01*
X42374117Y-57615000D01*
X42715883Y-57615000D01*
X43051081Y-57548325D01*
X43366831Y-57417537D01*
X43650998Y-57227663D01*
X43790001Y-57088660D01*
X43790001Y-64320412D01*
X43769482Y-64314188D01*
X43645000Y-64301928D01*
X41445000Y-64301928D01*
X41320518Y-64314188D01*
X41200820Y-64350498D01*
X41090506Y-64409463D01*
X40993815Y-64488815D01*
X40914463Y-64585506D01*
X40855498Y-64695820D01*
X40819188Y-64815518D01*
X40806928Y-64940000D01*
X40806928Y-67140000D01*
X40819188Y-67264482D01*
X40855498Y-67384180D01*
X40914463Y-67494494D01*
X40993815Y-67591185D01*
X41090506Y-67670537D01*
X41200820Y-67729502D01*
X41320518Y-67765812D01*
X41445000Y-67778072D01*
X43645000Y-67778072D01*
X43769482Y-67765812D01*
X43790001Y-67759588D01*
X43790001Y-68551101D01*
X43666004Y-68492429D01*
X43391816Y-68423700D01*
X43109488Y-68409783D01*
X42829870Y-68451213D01*
X42563708Y-68546397D01*
X42438486Y-68613329D01*
X42366903Y-68857298D01*
X43180000Y-69670395D01*
X43194143Y-69656253D01*
X43373748Y-69835858D01*
X43359605Y-69850000D01*
X43373748Y-69864143D01*
X43194143Y-70043748D01*
X43180000Y-70029605D01*
X42366903Y-70842702D01*
X42438486Y-71086671D01*
X42693996Y-71207571D01*
X42968184Y-71276300D01*
X43250512Y-71290217D01*
X43530130Y-71248787D01*
X43790001Y-71155853D01*
X43790000Y-73549438D01*
X43598574Y-73470147D01*
X43321335Y-73415000D01*
X43038665Y-73415000D01*
X42761426Y-73470147D01*
X42500273Y-73578320D01*
X42265241Y-73735363D01*
X42065363Y-73935241D01*
X41908320Y-74170273D01*
X41800147Y-74431426D01*
X41745000Y-74708665D01*
X41745000Y-74991335D01*
X41800147Y-75268574D01*
X41908320Y-75529727D01*
X42065363Y-75764759D01*
X42265241Y-75964637D01*
X42500273Y-76121680D01*
X42723442Y-76214120D01*
X42547641Y-76286939D01*
X42328987Y-76433038D01*
X42143038Y-76618987D01*
X41996939Y-76837641D01*
X41896304Y-77080595D01*
X41879427Y-77165442D01*
X41016859Y-78028010D01*
X40973551Y-78063552D01*
X40831716Y-78236378D01*
X40812323Y-78272660D01*
X40726323Y-78433555D01*
X40661422Y-78647503D01*
X40639508Y-78870001D01*
X40645000Y-78925762D01*
X40644999Y-83166249D01*
X40639508Y-83222001D01*
X40644999Y-83277752D01*
X40661422Y-83444499D01*
X40726323Y-83658447D01*
X40831715Y-83855624D01*
X40973550Y-84028450D01*
X41016864Y-84063997D01*
X42045001Y-85092135D01*
X42045000Y-89465712D01*
X41996939Y-89537641D01*
X41896304Y-89780595D01*
X41845000Y-90038514D01*
X41845000Y-90301486D01*
X41896304Y-90559405D01*
X41996939Y-90802359D01*
X42143038Y-91021013D01*
X42328987Y-91206962D01*
X42547641Y-91353061D01*
X42790595Y-91453696D01*
X43048514Y-91505000D01*
X43311486Y-91505000D01*
X43569405Y-91453696D01*
X43790000Y-91362322D01*
X43790000Y-94057678D01*
X43569405Y-93966304D01*
X43311486Y-93915000D01*
X43048514Y-93915000D01*
X42790595Y-93966304D01*
X42547641Y-94066939D01*
X42328987Y-94213038D01*
X42143038Y-94398987D01*
X41996939Y-94617641D01*
X41896304Y-94860595D01*
X41879427Y-94945441D01*
X39041869Y-97783000D01*
X38998561Y-97818542D01*
X38856726Y-97991368D01*
X38751333Y-98188544D01*
X38686432Y-98402492D01*
X38686432Y-98402493D01*
X38664518Y-98624991D01*
X38670009Y-98680742D01*
X38670009Y-99439258D01*
X38664518Y-99495009D01*
X38670009Y-99550760D01*
X38686432Y-99717507D01*
X38751333Y-99931455D01*
X38856725Y-100128632D01*
X38998560Y-100301458D01*
X39041874Y-100337005D01*
X41060000Y-102355132D01*
X41060000Y-102381260D01*
X41117068Y-102668158D01*
X41229010Y-102938411D01*
X41391525Y-103181632D01*
X41523380Y-103313487D01*
X41450820Y-103335498D01*
X41340506Y-103394463D01*
X41243815Y-103473815D01*
X41164463Y-103570506D01*
X41105498Y-103680820D01*
X41069188Y-103800518D01*
X41056928Y-103925000D01*
X41060000Y-104489250D01*
X41218750Y-104648000D01*
X42418000Y-104648000D01*
X42418000Y-104628000D01*
X42672000Y-104628000D01*
X42672000Y-104648000D01*
X42692000Y-104648000D01*
X42692000Y-104902000D01*
X42672000Y-104902000D01*
X42672000Y-104922000D01*
X42418000Y-104922000D01*
X42418000Y-104902000D01*
X41218750Y-104902000D01*
X41060000Y-105060750D01*
X41056928Y-105625000D01*
X41069188Y-105749482D01*
X41105498Y-105869180D01*
X41164463Y-105979494D01*
X41197705Y-106020000D01*
X36433630Y-106020000D01*
X36479502Y-105934180D01*
X36515812Y-105814482D01*
X36528072Y-105690000D01*
X36525000Y-105060750D01*
X36366250Y-104902000D01*
X35052000Y-104902000D01*
X35052000Y-104922000D01*
X34798000Y-104922000D01*
X34798000Y-104902000D01*
X33483750Y-104902000D01*
X33325000Y-105060750D01*
X33321928Y-105690000D01*
X33334188Y-105814482D01*
X33370498Y-105934180D01*
X33416370Y-106020000D01*
X28652295Y-106020000D01*
X28685537Y-105979494D01*
X28744502Y-105869180D01*
X28780812Y-105749482D01*
X28793072Y-105625000D01*
X28790000Y-105060750D01*
X28631250Y-104902000D01*
X27432000Y-104902000D01*
X27432000Y-104922000D01*
X27178000Y-104922000D01*
X27178000Y-104902000D01*
X27158000Y-104902000D01*
X27158000Y-104648000D01*
X27178000Y-104648000D01*
X27178000Y-104628000D01*
X27432000Y-104628000D01*
X27432000Y-104648000D01*
X28631250Y-104648000D01*
X28790000Y-104489250D01*
X28793072Y-103925000D01*
X28780812Y-103800518D01*
X28744502Y-103680820D01*
X28685537Y-103570506D01*
X28606185Y-103473815D01*
X28509494Y-103394463D01*
X28399180Y-103335498D01*
X28326620Y-103313487D01*
X28458475Y-103181632D01*
X28620990Y-102938411D01*
X28732932Y-102668158D01*
X28790000Y-102381260D01*
X28790000Y-102088740D01*
X28732932Y-101801842D01*
X28620990Y-101531589D01*
X28458475Y-101288368D01*
X28251632Y-101081525D01*
X28008411Y-100919010D01*
X27805000Y-100834755D01*
X27805000Y-95954288D01*
X27853061Y-95882359D01*
X27953696Y-95639405D01*
X28005000Y-95381486D01*
X28005000Y-95118514D01*
X27953696Y-94860595D01*
X27853061Y-94617641D01*
X27706962Y-94398987D01*
X27521013Y-94213038D01*
X27302359Y-94066939D01*
X27059405Y-93966304D01*
X26801486Y-93915000D01*
X26538514Y-93915000D01*
X26280595Y-93966304D01*
X26060000Y-94057678D01*
X26060000Y-91362322D01*
X26280595Y-91453696D01*
X26538514Y-91505000D01*
X26801486Y-91505000D01*
X27059405Y-91453696D01*
X27302359Y-91353061D01*
X27521013Y-91206962D01*
X27706962Y-91021013D01*
X27853061Y-90802359D01*
X27953696Y-90559405D01*
X28005000Y-90301486D01*
X28005000Y-90038514D01*
X27953696Y-89780595D01*
X27853061Y-89537641D01*
X27706962Y-89318987D01*
X27521013Y-89133038D01*
X27302359Y-88986939D01*
X27059405Y-88886304D01*
X26801486Y-88835000D01*
X26538514Y-88835000D01*
X26280595Y-88886304D01*
X26060000Y-88977678D01*
X26060000Y-83742322D01*
X26280595Y-83833696D01*
X26538514Y-83885000D01*
X26801486Y-83885000D01*
X27059405Y-83833696D01*
X27302359Y-83733061D01*
X27521013Y-83586962D01*
X27706962Y-83401013D01*
X27853061Y-83182359D01*
X27953696Y-82939405D01*
X28005000Y-82681486D01*
X28005000Y-82418514D01*
X27953696Y-82160595D01*
X27853061Y-81917641D01*
X27706962Y-81698987D01*
X27521013Y-81513038D01*
X27302359Y-81366939D01*
X27059405Y-81266304D01*
X26801486Y-81215000D01*
X26538514Y-81215000D01*
X26280595Y-81266304D01*
X26060000Y-81357678D01*
X26060000Y-78651562D01*
X26228956Y-78730047D01*
X26336671Y-78762716D01*
X26543000Y-78639374D01*
X26543000Y-77597000D01*
X26797000Y-77597000D01*
X26797000Y-78639374D01*
X27003329Y-78762716D01*
X27111044Y-78730047D01*
X27348392Y-78619792D01*
X27559670Y-78465351D01*
X27736759Y-78272660D01*
X27872853Y-78049123D01*
X27962722Y-77803330D01*
X27840201Y-77597000D01*
X26797000Y-77597000D01*
X26543000Y-77597000D01*
X26523000Y-77597000D01*
X26523000Y-77343000D01*
X26543000Y-77343000D01*
X26543000Y-77323000D01*
X26797000Y-77323000D01*
X26797000Y-77343000D01*
X27840201Y-77343000D01*
X27962722Y-77136670D01*
X27872853Y-76890877D01*
X27736759Y-76667340D01*
X27559670Y-76474649D01*
X27348392Y-76320208D01*
X27118733Y-76213525D01*
X27286292Y-76153603D01*
X27411514Y-76086671D01*
X27483097Y-75842702D01*
X26670000Y-75029605D01*
X26655858Y-75043748D01*
X26476253Y-74864143D01*
X26490395Y-74850000D01*
X26849605Y-74850000D01*
X27662702Y-75663097D01*
X27906671Y-75591514D01*
X28027571Y-75336004D01*
X28096300Y-75061816D01*
X28110217Y-74779488D01*
X28068787Y-74499870D01*
X27973603Y-74233708D01*
X27906671Y-74108486D01*
X27662702Y-74036903D01*
X26849605Y-74850000D01*
X26490395Y-74850000D01*
X26476253Y-74835858D01*
X26655858Y-74656253D01*
X26670000Y-74670395D01*
X27483097Y-73857298D01*
X27411514Y-73613329D01*
X27156004Y-73492429D01*
X26881816Y-73423700D01*
X26599488Y-73409783D01*
X26319870Y-73451213D01*
X26060000Y-73544147D01*
X26060000Y-71150562D01*
X26251426Y-71229853D01*
X26528665Y-71285000D01*
X26811335Y-71285000D01*
X27088574Y-71229853D01*
X27349727Y-71121680D01*
X27584759Y-70964637D01*
X27784637Y-70764759D01*
X27941680Y-70529727D01*
X28049853Y-70268574D01*
X28105000Y-69991335D01*
X28105000Y-69708665D01*
X28049853Y-69431426D01*
X27941680Y-69170273D01*
X27784637Y-68935241D01*
X27584759Y-68735363D01*
X27349727Y-68578320D01*
X27088574Y-68470147D01*
X26811335Y-68415000D01*
X26528665Y-68415000D01*
X26251426Y-68470147D01*
X26060000Y-68549438D01*
X26060000Y-67248661D01*
X26199002Y-67387663D01*
X26483169Y-67577537D01*
X26798919Y-67708325D01*
X27134117Y-67775000D01*
X27475883Y-67775000D01*
X27811081Y-67708325D01*
X28126831Y-67577537D01*
X28410998Y-67387663D01*
X28652663Y-67145998D01*
X28815387Y-66902465D01*
X28896716Y-67054623D01*
X29038551Y-67227449D01*
X29081865Y-67262996D01*
X30943288Y-69124420D01*
X30889180Y-69095498D01*
X30769482Y-69059188D01*
X30645000Y-69046928D01*
X29045000Y-69046928D01*
X28920518Y-69059188D01*
X28800820Y-69095498D01*
X28690506Y-69154463D01*
X28593815Y-69233815D01*
X28514463Y-69330506D01*
X28455498Y-69440820D01*
X28419188Y-69560518D01*
X28406928Y-69685000D01*
X28406928Y-71285000D01*
X28419188Y-71409482D01*
X28455498Y-71529180D01*
X28514463Y-71639494D01*
X28593815Y-71736185D01*
X28690506Y-71815537D01*
X28800820Y-71874502D01*
X28920518Y-71910812D01*
X29045000Y-71923072D01*
X29677941Y-71923072D01*
X31246796Y-73491928D01*
X30315000Y-73491928D01*
X30190518Y-73504188D01*
X30070820Y-73540498D01*
X29960506Y-73599463D01*
X29863815Y-73678815D01*
X29784463Y-73775506D01*
X29725498Y-73885820D01*
X29689188Y-74005518D01*
X29676928Y-74130000D01*
X29676928Y-74762940D01*
X28851864Y-75588005D01*
X28808550Y-75623552D01*
X28666715Y-75796378D01*
X28576780Y-75964637D01*
X28561323Y-75993555D01*
X28496422Y-76207503D01*
X28474508Y-76430001D01*
X28479999Y-76485753D01*
X28480000Y-83214240D01*
X28474508Y-83270001D01*
X28496422Y-83492499D01*
X28561323Y-83706447D01*
X28561324Y-83706448D01*
X28666716Y-83903624D01*
X28808551Y-84076450D01*
X28851859Y-84111992D01*
X29261548Y-84521681D01*
X29212641Y-84541939D01*
X28993987Y-84688038D01*
X28808038Y-84873987D01*
X28661939Y-85092641D01*
X28561304Y-85335595D01*
X28510000Y-85593514D01*
X28510000Y-85856486D01*
X28561304Y-86114405D01*
X28661939Y-86357359D01*
X28808038Y-86576013D01*
X28993987Y-86761962D01*
X29212641Y-86908061D01*
X29455595Y-87008696D01*
X29713514Y-87060000D01*
X29976486Y-87060000D01*
X30110001Y-87033442D01*
X30110002Y-88934866D01*
X29540442Y-89504427D01*
X29455595Y-89521304D01*
X29212641Y-89621939D01*
X28993987Y-89768038D01*
X28808038Y-89953987D01*
X28661939Y-90172641D01*
X28561304Y-90415595D01*
X28510000Y-90673514D01*
X28510000Y-90936486D01*
X28561304Y-91194405D01*
X28661939Y-91437359D01*
X28808038Y-91656013D01*
X28993987Y-91841962D01*
X29212641Y-91988061D01*
X29455595Y-92088696D01*
X29713514Y-92140000D01*
X29976486Y-92140000D01*
X30234405Y-92088696D01*
X30477359Y-91988061D01*
X30696013Y-91841962D01*
X30881962Y-91656013D01*
X31028061Y-91437359D01*
X31128696Y-91194405D01*
X31145573Y-91109558D01*
X32008141Y-90246991D01*
X32051450Y-90211448D01*
X32193285Y-90038622D01*
X32298677Y-89841446D01*
X32363578Y-89627498D01*
X32380001Y-89460751D01*
X32380001Y-89460742D01*
X32385491Y-89405000D01*
X32380001Y-89349258D01*
X32380001Y-84955754D01*
X32385492Y-84900003D01*
X32363578Y-84677504D01*
X32298677Y-84463556D01*
X32264440Y-84399503D01*
X32193285Y-84266380D01*
X32051450Y-84093554D01*
X32008141Y-84058012D01*
X31778522Y-83828392D01*
X31794727Y-83821680D01*
X32029759Y-83664637D01*
X32229637Y-83464759D01*
X32386680Y-83229727D01*
X32494853Y-82968574D01*
X32542850Y-82727282D01*
X33783141Y-81486991D01*
X33790001Y-81481362D01*
X33790000Y-92105836D01*
X33604523Y-92291313D01*
X33418479Y-92569748D01*
X33290330Y-92879128D01*
X33225000Y-93207565D01*
X33225000Y-93542435D01*
X33290330Y-93870872D01*
X33418479Y-94180252D01*
X33604523Y-94458687D01*
X33790001Y-94644165D01*
X33790000Y-100405836D01*
X33604523Y-100591313D01*
X33418479Y-100869748D01*
X33290330Y-101179128D01*
X33225000Y-101507565D01*
X33225000Y-101842435D01*
X33290330Y-102170872D01*
X33418479Y-102480252D01*
X33604523Y-102758687D01*
X33841313Y-102995477D01*
X34119748Y-103181521D01*
X34220140Y-103223105D01*
X33960000Y-103221928D01*
X33835518Y-103234188D01*
X33715820Y-103270498D01*
X33605506Y-103329463D01*
X33508815Y-103408815D01*
X33429463Y-103505506D01*
X33370498Y-103615820D01*
X33334188Y-103735518D01*
X33321928Y-103860000D01*
X33325000Y-104489250D01*
X33483750Y-104648000D01*
X34798000Y-104648000D01*
X34798000Y-104628000D01*
X35052000Y-104628000D01*
X35052000Y-104648000D01*
X36366250Y-104648000D01*
X36525000Y-104489250D01*
X36528072Y-103860000D01*
X36515812Y-103735518D01*
X36479502Y-103615820D01*
X36420537Y-103505506D01*
X36341185Y-103408815D01*
X36244494Y-103329463D01*
X36134180Y-103270498D01*
X36014482Y-103234188D01*
X35890000Y-103221928D01*
X35629860Y-103223105D01*
X35730252Y-103181521D01*
X36008687Y-102995477D01*
X36245477Y-102758687D01*
X36431521Y-102480252D01*
X36559670Y-102170872D01*
X36625000Y-101842435D01*
X36625000Y-101507565D01*
X36559670Y-101179128D01*
X36431521Y-100869748D01*
X36245477Y-100591313D01*
X36060000Y-100405836D01*
X36060000Y-94644164D01*
X36245477Y-94458687D01*
X36431521Y-94180252D01*
X36559670Y-93870872D01*
X36625000Y-93542435D01*
X36625000Y-93207565D01*
X36559670Y-92879128D01*
X36431521Y-92569748D01*
X36245477Y-92291313D01*
X36060000Y-92105836D01*
X36060000Y-91138330D01*
X38712278Y-91138330D01*
X38802147Y-91384123D01*
X38938241Y-91607660D01*
X39115330Y-91800351D01*
X39326608Y-91954792D01*
X39563956Y-92065047D01*
X39671671Y-92097716D01*
X39878000Y-91974374D01*
X39878000Y-90932000D01*
X40132000Y-90932000D01*
X40132000Y-91974374D01*
X40338329Y-92097716D01*
X40446044Y-92065047D01*
X40683392Y-91954792D01*
X40894670Y-91800351D01*
X41071759Y-91607660D01*
X41207853Y-91384123D01*
X41297722Y-91138330D01*
X41175201Y-90932000D01*
X40132000Y-90932000D01*
X39878000Y-90932000D01*
X38834799Y-90932000D01*
X38712278Y-91138330D01*
X36060000Y-91138330D01*
X36060000Y-90471670D01*
X38712278Y-90471670D01*
X38834799Y-90678000D01*
X39878000Y-90678000D01*
X39878000Y-89635626D01*
X40132000Y-89635626D01*
X40132000Y-90678000D01*
X41175201Y-90678000D01*
X41297722Y-90471670D01*
X41207853Y-90225877D01*
X41071759Y-90002340D01*
X40894670Y-89809649D01*
X40683392Y-89655208D01*
X40446044Y-89544953D01*
X40338329Y-89512284D01*
X40132000Y-89635626D01*
X39878000Y-89635626D01*
X39671671Y-89512284D01*
X39563956Y-89544953D01*
X39326608Y-89655208D01*
X39115330Y-89809649D01*
X38938241Y-90002340D01*
X38802147Y-90225877D01*
X38712278Y-90471670D01*
X36060000Y-90471670D01*
X36060000Y-85593514D01*
X38670000Y-85593514D01*
X38670000Y-85856486D01*
X38721304Y-86114405D01*
X38821939Y-86357359D01*
X38968038Y-86576013D01*
X39153987Y-86761962D01*
X39372641Y-86908061D01*
X39615595Y-87008696D01*
X39873514Y-87060000D01*
X40136486Y-87060000D01*
X40394405Y-87008696D01*
X40637359Y-86908061D01*
X40856013Y-86761962D01*
X41041962Y-86576013D01*
X41188061Y-86357359D01*
X41288696Y-86114405D01*
X41340000Y-85856486D01*
X41340000Y-85593514D01*
X41288696Y-85335595D01*
X41188061Y-85092641D01*
X41041962Y-84873987D01*
X40856013Y-84688038D01*
X40637359Y-84541939D01*
X40394405Y-84441304D01*
X40136486Y-84390000D01*
X39873514Y-84390000D01*
X39615595Y-84441304D01*
X39372641Y-84541939D01*
X39153987Y-84688038D01*
X38968038Y-84873987D01*
X38821939Y-85092641D01*
X38721304Y-85335595D01*
X38670000Y-85593514D01*
X36060000Y-85593514D01*
X36060000Y-74788665D01*
X37300000Y-74788665D01*
X37300000Y-75071335D01*
X37355147Y-75348574D01*
X37463320Y-75609727D01*
X37620363Y-75844759D01*
X37820241Y-76044637D01*
X38052759Y-76200000D01*
X37820241Y-76355363D01*
X37620363Y-76555241D01*
X37463320Y-76790273D01*
X37355147Y-77051426D01*
X37300000Y-77328665D01*
X37300000Y-77611335D01*
X37355147Y-77888574D01*
X37463320Y-78149727D01*
X37620363Y-78384759D01*
X37820241Y-78584637D01*
X38052759Y-78740000D01*
X37820241Y-78895363D01*
X37620363Y-79095241D01*
X37463320Y-79330273D01*
X37355147Y-79591426D01*
X37300000Y-79868665D01*
X37300000Y-80151335D01*
X37355147Y-80428574D01*
X37463320Y-80689727D01*
X37620363Y-80924759D01*
X37820241Y-81124637D01*
X38052759Y-81280000D01*
X37820241Y-81435363D01*
X37620363Y-81635241D01*
X37463320Y-81870273D01*
X37355147Y-82131426D01*
X37300000Y-82408665D01*
X37300000Y-82691335D01*
X37355147Y-82968574D01*
X37463320Y-83229727D01*
X37620363Y-83464759D01*
X37820241Y-83664637D01*
X38055273Y-83821680D01*
X38316426Y-83929853D01*
X38593665Y-83985000D01*
X38876335Y-83985000D01*
X39153574Y-83929853D01*
X39414727Y-83821680D01*
X39649759Y-83664637D01*
X39849637Y-83464759D01*
X40006680Y-83229727D01*
X40114853Y-82968574D01*
X40170000Y-82691335D01*
X40170000Y-82408665D01*
X40114853Y-82131426D01*
X40006680Y-81870273D01*
X39849637Y-81635241D01*
X39649759Y-81435363D01*
X39417241Y-81280000D01*
X39649759Y-81124637D01*
X39849637Y-80924759D01*
X40006680Y-80689727D01*
X40114853Y-80428574D01*
X40170000Y-80151335D01*
X40170000Y-79868665D01*
X40114853Y-79591426D01*
X40006680Y-79330273D01*
X39849637Y-79095241D01*
X39649759Y-78895363D01*
X39417241Y-78740000D01*
X39649759Y-78584637D01*
X39849637Y-78384759D01*
X40006680Y-78149727D01*
X40114853Y-77888574D01*
X40170000Y-77611335D01*
X40170000Y-77328665D01*
X40114853Y-77051426D01*
X40006680Y-76790273D01*
X39849637Y-76555241D01*
X39649759Y-76355363D01*
X39417241Y-76200000D01*
X39649759Y-76044637D01*
X39849637Y-75844759D01*
X40006680Y-75609727D01*
X40114853Y-75348574D01*
X40170000Y-75071335D01*
X40170000Y-74788665D01*
X40114853Y-74511426D01*
X40006680Y-74250273D01*
X39849637Y-74015241D01*
X39649759Y-73815363D01*
X39414727Y-73658320D01*
X39153574Y-73550147D01*
X38876335Y-73495000D01*
X38593665Y-73495000D01*
X38316426Y-73550147D01*
X38055273Y-73658320D01*
X37820241Y-73815363D01*
X37620363Y-74015241D01*
X37463320Y-74250273D01*
X37355147Y-74511426D01*
X37300000Y-74788665D01*
X36060000Y-74788665D01*
X36060000Y-71477702D01*
X36691903Y-71477702D01*
X36763486Y-71721671D01*
X37018996Y-71842571D01*
X37293184Y-71911300D01*
X37575512Y-71925217D01*
X37855130Y-71883787D01*
X38121292Y-71788603D01*
X38246514Y-71721671D01*
X38318097Y-71477702D01*
X37505000Y-70664605D01*
X36691903Y-71477702D01*
X36060000Y-71477702D01*
X36060000Y-70555512D01*
X36064783Y-70555512D01*
X36106213Y-70835130D01*
X36201397Y-71101292D01*
X36268329Y-71226514D01*
X36512298Y-71298097D01*
X37325395Y-70485000D01*
X37684605Y-70485000D01*
X38497702Y-71298097D01*
X38566928Y-71277785D01*
X38566928Y-71285000D01*
X38579188Y-71409482D01*
X38615498Y-71529180D01*
X38674463Y-71639494D01*
X38753815Y-71736185D01*
X38850506Y-71815537D01*
X38960820Y-71874502D01*
X39080518Y-71910812D01*
X39205000Y-71923072D01*
X40805000Y-71923072D01*
X40929482Y-71910812D01*
X41049180Y-71874502D01*
X41159494Y-71815537D01*
X41256185Y-71736185D01*
X41335537Y-71639494D01*
X41394502Y-71529180D01*
X41430812Y-71409482D01*
X41443072Y-71285000D01*
X41443072Y-69920512D01*
X41739783Y-69920512D01*
X41781213Y-70200130D01*
X41876397Y-70466292D01*
X41943329Y-70591514D01*
X42187298Y-70663097D01*
X43000395Y-69850000D01*
X42187298Y-69036903D01*
X41943329Y-69108486D01*
X41822429Y-69363996D01*
X41753700Y-69638184D01*
X41739783Y-69920512D01*
X41443072Y-69920512D01*
X41443072Y-69685000D01*
X41430812Y-69560518D01*
X41394502Y-69440820D01*
X41335537Y-69330506D01*
X41256185Y-69233815D01*
X41159494Y-69154463D01*
X41049180Y-69095498D01*
X40929482Y-69059188D01*
X40805000Y-69046928D01*
X39205000Y-69046928D01*
X39080518Y-69059188D01*
X38960820Y-69095498D01*
X38850506Y-69154463D01*
X38753815Y-69233815D01*
X38674463Y-69330506D01*
X38615498Y-69440820D01*
X38579188Y-69560518D01*
X38566928Y-69685000D01*
X38566928Y-69692215D01*
X38497702Y-69671903D01*
X37684605Y-70485000D01*
X37325395Y-70485000D01*
X36512298Y-69671903D01*
X36268329Y-69743486D01*
X36147429Y-69998996D01*
X36078700Y-70273184D01*
X36064783Y-70555512D01*
X36060000Y-70555512D01*
X36060000Y-70220750D01*
X36065491Y-70164998D01*
X36043577Y-69942499D01*
X35978676Y-69728551D01*
X35873284Y-69531375D01*
X35841215Y-69492298D01*
X36691903Y-69492298D01*
X37505000Y-70305395D01*
X38318097Y-69492298D01*
X38246514Y-69248329D01*
X37991004Y-69127429D01*
X37716816Y-69058700D01*
X37434488Y-69044783D01*
X37154870Y-69086213D01*
X36888708Y-69181397D01*
X36763486Y-69248329D01*
X36691903Y-69492298D01*
X35841215Y-69492298D01*
X35766989Y-69401854D01*
X35766987Y-69401852D01*
X35731449Y-69358549D01*
X35688146Y-69323011D01*
X34229793Y-67864660D01*
X34231411Y-67863990D01*
X34474632Y-67701475D01*
X34681475Y-67494632D01*
X34798000Y-67320240D01*
X34914525Y-67494632D01*
X35121368Y-67701475D01*
X35364589Y-67863990D01*
X35634842Y-67975932D01*
X35921740Y-68033000D01*
X36214260Y-68033000D01*
X36501158Y-67975932D01*
X36771411Y-67863990D01*
X37014632Y-67701475D01*
X37221475Y-67494632D01*
X37383990Y-67251411D01*
X37495932Y-66981158D01*
X37553000Y-66694260D01*
X37553000Y-66401740D01*
X37495932Y-66114842D01*
X37383990Y-65844589D01*
X37221475Y-65601368D01*
X37014632Y-65394525D01*
X36832466Y-65272805D01*
X36949355Y-65203178D01*
X37165588Y-65008269D01*
X37339641Y-64774920D01*
X37464825Y-64512099D01*
X37509476Y-64364890D01*
X37388155Y-64135000D01*
X36195000Y-64135000D01*
X36195000Y-64155000D01*
X35941000Y-64155000D01*
X35941000Y-64135000D01*
X33655000Y-64135000D01*
X33655000Y-64155000D01*
X33401000Y-64155000D01*
X33401000Y-64135000D01*
X32207845Y-64135000D01*
X32086524Y-64364890D01*
X32131175Y-64512099D01*
X32256359Y-64774920D01*
X32430412Y-65008269D01*
X32646645Y-65203178D01*
X32763534Y-65272805D01*
X32581368Y-65394525D01*
X32374525Y-65601368D01*
X32212010Y-65844589D01*
X32100068Y-66114842D01*
X32043000Y-66401740D01*
X32043000Y-66694260D01*
X32100068Y-66981158D01*
X32163550Y-67134419D01*
X30980000Y-65950869D01*
X30980000Y-61824890D01*
X32086524Y-61824890D01*
X32131175Y-61972099D01*
X32256359Y-62234920D01*
X32430412Y-62468269D01*
X32646645Y-62663178D01*
X32772255Y-62738000D01*
X32646645Y-62812822D01*
X32430412Y-63007731D01*
X32256359Y-63241080D01*
X32131175Y-63503901D01*
X32086524Y-63651110D01*
X32207845Y-63881000D01*
X33401000Y-63881000D01*
X33401000Y-61595000D01*
X33655000Y-61595000D01*
X33655000Y-63881000D01*
X35941000Y-63881000D01*
X35941000Y-61595000D01*
X36195000Y-61595000D01*
X36195000Y-63881000D01*
X37388155Y-63881000D01*
X37509476Y-63651110D01*
X37464825Y-63503901D01*
X37339641Y-63241080D01*
X37165588Y-63007731D01*
X36949355Y-62812822D01*
X36823745Y-62738000D01*
X36949355Y-62663178D01*
X37165588Y-62468269D01*
X37339641Y-62234920D01*
X37464825Y-61972099D01*
X37509476Y-61824890D01*
X37388155Y-61595000D01*
X36195000Y-61595000D01*
X35941000Y-61595000D01*
X33655000Y-61595000D01*
X33401000Y-61595000D01*
X32207845Y-61595000D01*
X32086524Y-61824890D01*
X30980000Y-61824890D01*
X30980000Y-59284890D01*
X32086524Y-59284890D01*
X32131175Y-59432099D01*
X32256359Y-59694920D01*
X32430412Y-59928269D01*
X32646645Y-60123178D01*
X32772255Y-60198000D01*
X32646645Y-60272822D01*
X32430412Y-60467731D01*
X32256359Y-60701080D01*
X32131175Y-60963901D01*
X32086524Y-61111110D01*
X32207845Y-61341000D01*
X33401000Y-61341000D01*
X33401000Y-59055000D01*
X33655000Y-59055000D01*
X33655000Y-61341000D01*
X35941000Y-61341000D01*
X35941000Y-59055000D01*
X36195000Y-59055000D01*
X36195000Y-61341000D01*
X37388155Y-61341000D01*
X37509476Y-61111110D01*
X37464825Y-60963901D01*
X37339641Y-60701080D01*
X37165588Y-60467731D01*
X36949355Y-60272822D01*
X36823745Y-60198000D01*
X36949355Y-60123178D01*
X37165588Y-59928269D01*
X37339641Y-59694920D01*
X37464825Y-59432099D01*
X37509476Y-59284890D01*
X37388155Y-59055000D01*
X36195000Y-59055000D01*
X35941000Y-59055000D01*
X33655000Y-59055000D01*
X33401000Y-59055000D01*
X32207845Y-59055000D01*
X32086524Y-59284890D01*
X30980000Y-59284890D01*
X30980000Y-53810131D01*
X32512060Y-52278072D01*
X33250000Y-52278072D01*
X33374482Y-52265812D01*
X33494180Y-52229502D01*
X33604494Y-52170537D01*
X33701185Y-52091185D01*
X33780537Y-51994494D01*
X33839502Y-51884180D01*
X33860432Y-51815184D01*
X33994304Y-51949056D01*
X34233431Y-52108835D01*
X34499134Y-52218893D01*
X34781203Y-52275000D01*
X35068797Y-52275000D01*
X35350866Y-52218893D01*
X35616569Y-52108835D01*
X35855696Y-51949056D01*
X35979201Y-51825551D01*
X36594054Y-51825551D01*
X36668663Y-52072073D01*
X36928439Y-52195473D01*
X37207297Y-52265823D01*
X37494521Y-52280417D01*
X37779074Y-52238697D01*
X38050020Y-52142265D01*
X38181337Y-52072073D01*
X38255946Y-51825551D01*
X37425000Y-50994605D01*
X36594054Y-51825551D01*
X35979201Y-51825551D01*
X36059056Y-51745696D01*
X36174275Y-51573258D01*
X36414449Y-51645946D01*
X37245395Y-50815000D01*
X37604605Y-50815000D01*
X38435551Y-51645946D01*
X38682073Y-51571337D01*
X38805473Y-51311561D01*
X38875823Y-51032703D01*
X38890417Y-50745479D01*
X38848697Y-50460926D01*
X38752265Y-50189980D01*
X38682073Y-50058663D01*
X38435551Y-49984054D01*
X37604605Y-50815000D01*
X37245395Y-50815000D01*
X36414449Y-49984054D01*
X36174275Y-50056742D01*
X36059056Y-49884304D01*
X35979201Y-49804449D01*
X36594054Y-49804449D01*
X37425000Y-50635395D01*
X38255946Y-49804449D01*
X38181337Y-49557927D01*
X37921561Y-49434527D01*
X37642703Y-49364177D01*
X37355479Y-49349583D01*
X37070926Y-49391303D01*
X36799980Y-49487735D01*
X36668663Y-49557927D01*
X36594054Y-49804449D01*
X35979201Y-49804449D01*
X35855696Y-49680944D01*
X35616569Y-49521165D01*
X35350866Y-49411107D01*
X35068797Y-49355000D01*
X34781203Y-49355000D01*
X34499134Y-49411107D01*
X34233431Y-49521165D01*
X33994304Y-49680944D01*
X33860432Y-49814816D01*
X33839502Y-49745820D01*
X33780537Y-49635506D01*
X33701185Y-49538815D01*
X33604494Y-49459463D01*
X33494180Y-49400498D01*
X33374482Y-49364188D01*
X33250000Y-49351928D01*
X31600000Y-49351928D01*
X31475518Y-49364188D01*
X31355820Y-49400498D01*
X31245506Y-49459463D01*
X31148815Y-49538815D01*
X31069463Y-49635506D01*
X31010498Y-49745820D01*
X30974188Y-49865518D01*
X30961928Y-49990000D01*
X30961928Y-50617940D01*
X29081860Y-52498009D01*
X29038552Y-52533551D01*
X28896717Y-52706377D01*
X28840384Y-52811770D01*
X28791324Y-52903554D01*
X28726423Y-53117502D01*
X28704509Y-53340000D01*
X28710001Y-53395761D01*
X28710001Y-54223008D01*
X28649180Y-54190498D01*
X28529482Y-54154188D01*
X28405000Y-54141928D01*
X26205000Y-54141928D01*
X26080518Y-54154188D01*
X26060000Y-54160412D01*
X26060000Y-43614865D01*
X28393000Y-43614865D01*
X28393000Y-44015135D01*
X28471089Y-44407713D01*
X28624265Y-44777513D01*
X28846643Y-45110325D01*
X29129675Y-45393357D01*
X29462487Y-45615735D01*
X29832287Y-45768911D01*
X30224865Y-45847000D01*
X30625135Y-45847000D01*
X31017713Y-45768911D01*
X31387513Y-45615735D01*
X31720325Y-45393357D01*
X32003357Y-45110325D01*
X32225735Y-44777513D01*
X32378911Y-44407713D01*
X32457000Y-44015135D01*
X32457000Y-43614865D01*
X37393000Y-43614865D01*
X37393000Y-44015135D01*
X37471089Y-44407713D01*
X37624265Y-44777513D01*
X37846643Y-45110325D01*
X38129675Y-45393357D01*
X38462487Y-45615735D01*
X38832287Y-45768911D01*
X39224865Y-45847000D01*
X39625135Y-45847000D01*
X40017713Y-45768911D01*
X40387513Y-45615735D01*
X40720325Y-45393357D01*
X41003357Y-45110325D01*
X41225735Y-44777513D01*
X41378911Y-44407713D01*
X41457000Y-44015135D01*
X41457000Y-43614865D01*
X41378911Y-43222287D01*
X41225735Y-42852487D01*
X41003357Y-42519675D01*
X40720325Y-42236643D01*
X40387513Y-42014265D01*
X40017713Y-41861089D01*
X39625135Y-41783000D01*
X39224865Y-41783000D01*
X38832287Y-41861089D01*
X38462487Y-42014265D01*
X38129675Y-42236643D01*
X37846643Y-42519675D01*
X37624265Y-42852487D01*
X37471089Y-43222287D01*
X37393000Y-43614865D01*
X32457000Y-43614865D01*
X32378911Y-43222287D01*
X32225735Y-42852487D01*
X32003357Y-42519675D01*
X31720325Y-42236643D01*
X31387513Y-42014265D01*
X31017713Y-41861089D01*
X30625135Y-41783000D01*
X30224865Y-41783000D01*
X29832287Y-41861089D01*
X29462487Y-42014265D01*
X29129675Y-42236643D01*
X28846643Y-42519675D01*
X28624265Y-42852487D01*
X28471089Y-43222287D01*
X28393000Y-43614865D01*
X26060000Y-43614865D01*
X26060000Y-38760000D01*
X43790001Y-38760000D01*
X43790001Y-54671340D01*
G37*
%TD.AperFunction*%
D25*
X32538748Y-70470858D02*
X32524605Y-70485000D01*
X33337702Y-71298097D01*
X33581671Y-71226514D01*
X33702571Y-70971004D01*
X33771300Y-70696816D01*
X33775076Y-70620207D01*
X33790001Y-70635132D01*
X33790001Y-72823639D01*
X33783141Y-72818009D01*
X32808408Y-71843277D01*
X32961292Y-71788603D01*
X33086514Y-71721671D01*
X33158097Y-71477702D01*
X32345000Y-70664605D01*
X32330858Y-70678748D01*
X32151253Y-70499143D01*
X32165395Y-70485000D01*
X32151253Y-70470858D01*
X32330858Y-70291253D01*
X32345000Y-70305395D01*
X32359143Y-70291253D01*
X32538748Y-70470858D01*
%TA.AperFunction,Conductor*%
D26*
G36*
X32538748Y-70470858D02*
G01*
X32524605Y-70485000D01*
X33337702Y-71298097D01*
X33581671Y-71226514D01*
X33702571Y-70971004D01*
X33771300Y-70696816D01*
X33775076Y-70620207D01*
X33790001Y-70635132D01*
X33790001Y-72823639D01*
X33783141Y-72818009D01*
X32808408Y-71843277D01*
X32961292Y-71788603D01*
X33086514Y-71721671D01*
X33158097Y-71477702D01*
X32345000Y-70664605D01*
X32330858Y-70678748D01*
X32151253Y-70499143D01*
X32165395Y-70485000D01*
X32151253Y-70470858D01*
X32330858Y-70291253D01*
X32345000Y-70305395D01*
X32359143Y-70291253D01*
X32538748Y-70470858D01*
G37*
%TD.AperFunction*%
%TD*%
M02*
