M48
; DRILL file {KiCad (5.1.8)-1} date 01/05/21 22:27:51
; FORMAT={-:-/ absolute / inch / decimal}
; #@! TF.CreationDate,2021-01-05T22:27:51+01:00
; #@! TF.GenerationSoftware,Kicad,Pcbnew,(5.1.8)-1
FMAT,2
INCH
T1C0.0276
T2C0.0315
T3C0.0394
T4C0.0433
T5C0.0480
T6C0.0559
T7C0.0563
T8C0.0827
%
G90
G05
T1
X1.05Y-3.55
X1.7Y-3.55
X1.7Y-3.75
X1.7Y-3.05
X1.575Y-3.375
X1.575Y-3.575
X1.05Y-3.05
X1.05Y-3.25
X1.175Y-3.375
X1.175Y-3.575
X1.7Y-3.25
X1.05Y-3.75
T2
X1.225Y-2.95
X1.225Y-3.05
X1.225Y-3.15
X1.225Y-3.25
X1.525Y-2.95
X1.525Y-3.05
X1.525Y-3.15
X1.525Y-3.25
X1.05Y-2.75
X1.05Y-2.9469
X1.175Y-2.775
X1.2734Y-2.775
X1.7Y-2.75
X1.7Y-2.9469
X1.4766Y-2.775
X1.575Y-2.775
T3
X1.32Y-2.22
X1.32Y-2.32
X1.32Y-2.42
X1.32Y-2.52
X1.32Y-2.62
X1.42Y-2.22
X1.42Y-2.32
X1.42Y-2.42
X1.42Y-2.52
X1.42Y-2.62
X1.675Y-3.925
X1.675Y-4.025
X1.675Y-4.125
X1.075Y-4.025
X1.075Y-4.125
T4
X1.075Y-2.2
X1.075Y-2.6
X1.2766Y-2.0006
X1.375Y-2.0006
X1.4734Y-2.0006
X1.675Y-2.2
X1.675Y-2.6
T5
X1.375Y-4.125
T6
X1.375Y-4.003
T7
X1.375Y-3.6762
T8
X1.1978Y-1.725
X1.5522Y-1.725
T0
M30
