M48
; DRILL file {KiCad (5.1.8)-1} date 01/05/21 22:17:57
; FORMAT={-:-/ absolute / inch / decimal}
; #@! TF.CreationDate,2021-01-05T22:17:57+01:00
; #@! TF.GenerationSoftware,Kicad,Pcbnew,(5.1.8)-1
FMAT,2
INCH
T1C0.0480
T2C0.0559
T3C0.0563
T4C0.0728
%
G90
G05
T1
X4.2Y-2.0912
X4.6Y-2.0912
X4.21Y-4.78
X4.59Y-5.47
X4.21Y-4.0912
X4.59Y-4.0912
X4.21Y-5.47
X4.59Y-4.78
X4.4Y-2.7012
T2
X4.21Y-4.902
X4.59Y-4.902
X4.4Y-2.8232
X4.59Y-5.592
X4.21Y-4.2132
X4.59Y-4.2132
X4.21Y-5.592
X4.2Y-2.2132
X4.6Y-2.2132
T3
X4.2Y-2.54
X4.6Y-2.54
X4.21Y-5.2288
X4.59Y-5.2288
X4.4Y-3.15
X4.59Y-5.9188
X4.21Y-4.54
X4.59Y-4.54
X4.21Y-5.9188
T4
X4.4Y-3.415
X4.4Y-3.6
X4.4Y-3.785
T0
M30
