%TF.GenerationSoftware,KiCad,Pcbnew,(5.1.8)-1*%
%TF.CreationDate,2021-01-05T22:18:11+01:00*%
%TF.ProjectId,Paco,5061636f-2e6b-4696-9361-645f70636258,rev?*%
%TF.SameCoordinates,Original*%
%TF.FileFunction,Legend,Bot*%
%TF.FilePolarity,Positive*%
%FSLAX46Y46*%
G04 Gerber Fmt 4.6, Leading zero omitted, Abs format (unit mm)*
G04 Created by KiCad (PCBNEW (5.1.8)-1) date 2021-01-05 22:18:11*
%MOMM*%
%LPD*%
G01*
G04 APERTURE LIST*
%ADD10C,0.150000*%
%ADD11C,0.300000*%
%ADD12C,0.600000*%
%ADD13C,2.130000*%
%ADD14R,1.930000X1.830000*%
%ADD15C,2.850000*%
%ADD16R,2.850000X2.850000*%
G04 APERTURE END LIST*
D10*
X113283809Y-145185380D02*
X112950476Y-146185380D01*
X112617142Y-145185380D01*
X111760000Y-146185380D02*
X112331428Y-146185380D01*
X112045714Y-146185380D02*
X112045714Y-145185380D01*
X112140952Y-145328238D01*
X112236190Y-145423476D01*
X112331428Y-145471095D01*
X111331428Y-146090142D02*
X111283809Y-146137761D01*
X111331428Y-146185380D01*
X111379047Y-146137761D01*
X111331428Y-146090142D01*
X111331428Y-146185380D01*
X110664761Y-145185380D02*
X110569523Y-145185380D01*
X110474285Y-145233000D01*
X110426666Y-145280619D01*
X110379047Y-145375857D01*
X110331428Y-145566333D01*
X110331428Y-145804428D01*
X110379047Y-145994904D01*
X110426666Y-146090142D01*
X110474285Y-146137761D01*
X110569523Y-146185380D01*
X110664761Y-146185380D01*
X110760000Y-146137761D01*
X110807619Y-146090142D01*
X110855238Y-145994904D01*
X110902857Y-145804428D01*
X110902857Y-145566333D01*
X110855238Y-145375857D01*
X110807619Y-145280619D01*
X110760000Y-145233000D01*
X110664761Y-145185380D01*
X113283809Y-147835380D02*
X113855238Y-147835380D01*
X113569523Y-147835380D02*
X113569523Y-146835380D01*
X113664761Y-146978238D01*
X113760000Y-147073476D01*
X113855238Y-147121095D01*
X112855238Y-147454428D02*
X112093333Y-147454428D01*
X111569523Y-146835380D02*
X111664761Y-147025857D01*
X111188571Y-146930619D02*
X111140952Y-146883000D01*
X111045714Y-146835380D01*
X110807619Y-146835380D01*
X110712380Y-146883000D01*
X110664761Y-146930619D01*
X110617142Y-147025857D01*
X110617142Y-147121095D01*
X110664761Y-147263952D01*
X111236190Y-147835380D01*
X110617142Y-147835380D01*
X109664761Y-147835380D02*
X110236190Y-147835380D01*
X109950476Y-147835380D02*
X109950476Y-146835380D01*
X110045714Y-146978238D01*
X110140952Y-147073476D01*
X110236190Y-147121095D01*
D11*
X112918761Y-101157619D02*
X110918761Y-101157619D01*
X110918761Y-101633809D01*
X111014000Y-101919523D01*
X111204476Y-102110000D01*
X111394952Y-102205238D01*
X111775904Y-102300476D01*
X112061619Y-102300476D01*
X112442571Y-102205238D01*
X112633047Y-102110000D01*
X112823523Y-101919523D01*
X112918761Y-101633809D01*
X112918761Y-101157619D01*
X112823523Y-103919523D02*
X112918761Y-103729047D01*
X112918761Y-103348095D01*
X112823523Y-103157619D01*
X112633047Y-103062380D01*
X111871142Y-103062380D01*
X111680666Y-103157619D01*
X111585428Y-103348095D01*
X111585428Y-103729047D01*
X111680666Y-103919523D01*
X111871142Y-104014761D01*
X112061619Y-104014761D01*
X112252095Y-103062380D01*
X112823523Y-104776666D02*
X112918761Y-104967142D01*
X112918761Y-105348095D01*
X112823523Y-105538571D01*
X112633047Y-105633809D01*
X112537809Y-105633809D01*
X112347333Y-105538571D01*
X112252095Y-105348095D01*
X112252095Y-105062380D01*
X112156857Y-104871904D01*
X111966380Y-104776666D01*
X111871142Y-104776666D01*
X111680666Y-104871904D01*
X111585428Y-105062380D01*
X111585428Y-105348095D01*
X111680666Y-105538571D01*
X112918761Y-106490952D02*
X111585428Y-106490952D01*
X110918761Y-106490952D02*
X111014000Y-106395714D01*
X111109238Y-106490952D01*
X111014000Y-106586190D01*
X110918761Y-106490952D01*
X111109238Y-106490952D01*
X111585428Y-108300476D02*
X113204476Y-108300476D01*
X113394952Y-108205238D01*
X113490190Y-108110000D01*
X113585428Y-107919523D01*
X113585428Y-107633809D01*
X113490190Y-107443333D01*
X112823523Y-108300476D02*
X112918761Y-108110000D01*
X112918761Y-107729047D01*
X112823523Y-107538571D01*
X112728285Y-107443333D01*
X112537809Y-107348095D01*
X111966380Y-107348095D01*
X111775904Y-107443333D01*
X111680666Y-107538571D01*
X111585428Y-107729047D01*
X111585428Y-108110000D01*
X111680666Y-108300476D01*
X111585428Y-109252857D02*
X112918761Y-109252857D01*
X111775904Y-109252857D02*
X111680666Y-109348095D01*
X111585428Y-109538571D01*
X111585428Y-109824285D01*
X111680666Y-110014761D01*
X111871142Y-110110000D01*
X112918761Y-110110000D01*
X112823523Y-111824285D02*
X112918761Y-111633809D01*
X112918761Y-111252857D01*
X112823523Y-111062380D01*
X112633047Y-110967142D01*
X111871142Y-110967142D01*
X111680666Y-111062380D01*
X111585428Y-111252857D01*
X111585428Y-111633809D01*
X111680666Y-111824285D01*
X111871142Y-111919523D01*
X112061619Y-111919523D01*
X112252095Y-110967142D01*
X112918761Y-113633809D02*
X110918761Y-113633809D01*
X112823523Y-113633809D02*
X112918761Y-113443333D01*
X112918761Y-113062380D01*
X112823523Y-112871904D01*
X112728285Y-112776666D01*
X112537809Y-112681428D01*
X111966380Y-112681428D01*
X111775904Y-112776666D01*
X111680666Y-112871904D01*
X111585428Y-113062380D01*
X111585428Y-113443333D01*
X111680666Y-113633809D01*
X112918761Y-116110000D02*
X110918761Y-116110000D01*
X111680666Y-116110000D02*
X111585428Y-116300476D01*
X111585428Y-116681428D01*
X111680666Y-116871904D01*
X111775904Y-116967142D01*
X111966380Y-117062380D01*
X112537809Y-117062380D01*
X112728285Y-116967142D01*
X112823523Y-116871904D01*
X112918761Y-116681428D01*
X112918761Y-116300476D01*
X112823523Y-116110000D01*
X111585428Y-117729047D02*
X112918761Y-118205238D01*
X111585428Y-118681428D02*
X112918761Y-118205238D01*
X113394952Y-118014761D01*
X113490190Y-117919523D01*
X113585428Y-117729047D01*
X112918761Y-120967142D02*
X110918761Y-120967142D01*
X110918761Y-121443333D01*
X111014000Y-121729047D01*
X111204476Y-121919523D01*
X111394952Y-122014761D01*
X111775904Y-122110000D01*
X112061619Y-122110000D01*
X112442571Y-122014761D01*
X112633047Y-121919523D01*
X112823523Y-121729047D01*
X112918761Y-121443333D01*
X112918761Y-120967142D01*
X112918761Y-123824285D02*
X111871142Y-123824285D01*
X111680666Y-123729047D01*
X111585428Y-123538571D01*
X111585428Y-123157619D01*
X111680666Y-122967142D01*
X112823523Y-123824285D02*
X112918761Y-123633809D01*
X112918761Y-123157619D01*
X112823523Y-122967142D01*
X112633047Y-122871904D01*
X112442571Y-122871904D01*
X112252095Y-122967142D01*
X112156857Y-123157619D01*
X112156857Y-123633809D01*
X112061619Y-123824285D01*
X111585428Y-124586190D02*
X112918761Y-125062380D01*
X111585428Y-125538571D01*
X112918761Y-126300476D02*
X111585428Y-126300476D01*
X110918761Y-126300476D02*
X111014000Y-126205238D01*
X111109238Y-126300476D01*
X111014000Y-126395714D01*
X110918761Y-126300476D01*
X111109238Y-126300476D01*
X112918761Y-128110000D02*
X110918761Y-128110000D01*
X112823523Y-128110000D02*
X112918761Y-127919523D01*
X112918761Y-127538571D01*
X112823523Y-127348095D01*
X112728285Y-127252857D01*
X112537809Y-127157619D01*
X111966380Y-127157619D01*
X111775904Y-127252857D01*
X111680666Y-127348095D01*
X111585428Y-127538571D01*
X111585428Y-127919523D01*
X111680666Y-128110000D01*
X111871142Y-131252857D02*
X111966380Y-131538571D01*
X112061619Y-131633809D01*
X112252095Y-131729047D01*
X112537809Y-131729047D01*
X112728285Y-131633809D01*
X112823523Y-131538571D01*
X112918761Y-131348095D01*
X112918761Y-130586190D01*
X110918761Y-130586190D01*
X110918761Y-131252857D01*
X111014000Y-131443333D01*
X111109238Y-131538571D01*
X111299714Y-131633809D01*
X111490190Y-131633809D01*
X111680666Y-131538571D01*
X111775904Y-131443333D01*
X111871142Y-131252857D01*
X111871142Y-130586190D01*
X112918761Y-133443333D02*
X111871142Y-133443333D01*
X111680666Y-133348095D01*
X111585428Y-133157619D01*
X111585428Y-132776666D01*
X111680666Y-132586190D01*
X112823523Y-133443333D02*
X112918761Y-133252857D01*
X112918761Y-132776666D01*
X112823523Y-132586190D01*
X112633047Y-132490952D01*
X112442571Y-132490952D01*
X112252095Y-132586190D01*
X112156857Y-132776666D01*
X112156857Y-133252857D01*
X112061619Y-133443333D01*
X112823523Y-134300476D02*
X112918761Y-134490952D01*
X112918761Y-134871904D01*
X112823523Y-135062380D01*
X112633047Y-135157619D01*
X112537809Y-135157619D01*
X112347333Y-135062380D01*
X112252095Y-134871904D01*
X112252095Y-134586190D01*
X112156857Y-134395714D01*
X111966380Y-134300476D01*
X111871142Y-134300476D01*
X111680666Y-134395714D01*
X111585428Y-134586190D01*
X111585428Y-134871904D01*
X111680666Y-135062380D01*
D12*
X107981523Y-75356535D02*
X103981523Y-75856535D01*
X103981523Y-77380345D01*
X104172000Y-77737488D01*
X104362476Y-77904154D01*
X104743428Y-78047011D01*
X105314857Y-77975583D01*
X105695809Y-77737488D01*
X105886285Y-77523202D01*
X106076761Y-77118440D01*
X106076761Y-75594630D01*
X106838666Y-79308916D02*
X106838666Y-81213678D01*
X107981523Y-78785107D02*
X103981523Y-80618440D01*
X107981523Y-81451773D01*
X107600571Y-85118440D02*
X107791047Y-84904154D01*
X107981523Y-84308916D01*
X107981523Y-83927964D01*
X107791047Y-83380345D01*
X107410095Y-83047011D01*
X107029142Y-82904154D01*
X106267238Y-82808916D01*
X105695809Y-82880345D01*
X104933904Y-83166059D01*
X104552952Y-83404154D01*
X104172000Y-83832726D01*
X103981523Y-84427964D01*
X103981523Y-84808916D01*
X104172000Y-85356535D01*
X104362476Y-85523202D01*
X103981523Y-88047011D02*
X103981523Y-88808916D01*
X104172000Y-89166059D01*
X104552952Y-89499392D01*
X105314857Y-89594630D01*
X106648190Y-89427964D01*
X107410095Y-89142250D01*
X107791047Y-88713678D01*
X107981523Y-88308916D01*
X107981523Y-87547011D01*
X107791047Y-87189869D01*
X107410095Y-86856535D01*
X106648190Y-86761297D01*
X105314857Y-86927964D01*
X104552952Y-87213678D01*
X104172000Y-87642250D01*
X103981523Y-88047011D01*
X107600571Y-91023202D02*
X107791047Y-91189869D01*
X107981523Y-90975583D01*
X107791047Y-90808916D01*
X107600571Y-91023202D01*
X107981523Y-90975583D01*
X106457714Y-91166059D02*
X104172000Y-91261297D01*
X103981523Y-91475583D01*
X104172000Y-91642250D01*
X106457714Y-91166059D01*
X103981523Y-91475583D01*
%LPC*%
D13*
%TO.C,J9*%
X116586000Y-150338000D03*
D14*
X116586000Y-138938000D03*
D13*
X116586000Y-142038000D03*
%TD*%
%TO.C,J8*%
X106934000Y-150338000D03*
D14*
X106934000Y-138938000D03*
D13*
X106934000Y-142038000D03*
%TD*%
D15*
%TO.C,SW1*%
X111760000Y-86740000D03*
X111760000Y-91440000D03*
D16*
X111760000Y-96140000D03*
%TD*%
D13*
%TO.C,J4*%
X116586000Y-132812000D03*
D14*
X116586000Y-121412000D03*
D13*
X116586000Y-124512000D03*
%TD*%
%TO.C,J7*%
X106680000Y-64516000D03*
D14*
X106680000Y-53116000D03*
D13*
X106680000Y-56216000D03*
%TD*%
%TO.C,J6*%
X111760000Y-80010000D03*
D14*
X111760000Y-68610000D03*
D13*
X111760000Y-71710000D03*
%TD*%
%TO.C,J5*%
X116840000Y-64516000D03*
D14*
X116840000Y-53116000D03*
D13*
X116840000Y-56216000D03*
%TD*%
%TO.C,J3*%
X116586000Y-115316000D03*
D14*
X116586000Y-103916000D03*
D13*
X116586000Y-107016000D03*
%TD*%
%TO.C,J2*%
X106934000Y-132812000D03*
D14*
X106934000Y-121412000D03*
D13*
X106934000Y-124512000D03*
%TD*%
%TO.C,J1*%
X106934000Y-115316000D03*
D14*
X106934000Y-103916000D03*
D13*
X106934000Y-107016000D03*
%TD*%
M02*
